<svg width="30" height="30" viewBox="0 0 30 30" fill="none" xmlns="http://www.w3.org/2000/svg">
<path fillRule="evenodd" clipRule="evenodd" d="M3.33333 10V3.33333H10V10H3.33333ZM0 1.66667C0 0.746192 0.746192 0 1.66667 0H11.6667C12.5871 0 13.3333 0.746192 13.3333 1.66667V11.6667C13.3333 12.5871 12.5871 13.3333 11.6667 13.3333H1.66667C0.746192 13.3333 0 12.5871 0 11.6667V1.66667ZM20 10V3.33333H26.6667V10H20ZM16.6667 1.66667C16.6667 0.746192 17.4129 0 18.3333 0H28.3333C29.2538 0 30 0.746192 30 1.66667V11.6667C30 12.5871 29.2538 13.3333 28.3333 13.3333H18.3333C17.4129 13.3333 16.6667 12.5871 16.6667 11.6667V1.66667ZM20 20V26.6667H26.6667V20H20ZM18.3333 16.6667C17.4129 16.6667 16.6667 17.4129 16.6667 18.3333V28.3333C16.6667 29.2538 17.4129 30 18.3333 30H28.3333C29.2538 30 30 29.2538 30 28.3333V18.3333C30 17.4129 29.2538 16.6667 28.3333 16.6667H18.3333ZM3.33333 26.6667V20H10V26.6667H3.33333ZM0 18.3333C0 17.4129 0.746192 16.6667 1.66667 16.6667H11.6667C12.5871 16.6667 13.3333 17.4129 13.3333 18.3333V28.3333C13.3333 29.2538 12.5871 30 11.6667 30H1.66667C0.746192 30 0 29.2538 0 28.3333V18.3333Z" fill="white" fill-opacity="0.5"/>
</svg>
