<svg width="26" height="30" viewBox="0 0 26 30" fill="none" xmlns="http://www.w3.org/2000/svg">
<path d="M2.00016 0C2.44219 0 2.86611 0.175595 3.17867 0.488155C3.49123 0.800716 3.66683 1.22464 3.66683 1.66667V1.88515C3.66683 2.47932 4.27138 2.88388 4.83213 2.68741C6.42455 2.12946 8.34747 1.66667 10.3335 1.66667C15.3335 1.66667 15.3335 5 18.6668 5C20.4322 5 21.782 4.58448 22.7896 4.04685C23.5655 3.6329 25.3335 4.31737 25.3335 5.19672V13.0328C25.3335 14.3265 25.0544 15.6532 24.076 16.4996C23.0528 17.3847 21.3341 18.3333 18.6668 18.3333C13.6668 18.3333 13.6668 15 10.3335 15C6.01464 15 4.18279 17.487 3.76383 18.1646C3.6958 18.2746 3.66683 18.4007 3.66683 18.5301V28.3333C3.66683 29.2538 2.92064 30 2.00016 30Lnan nanL2.00016 30C1.07969 30 0.333496 29.2538 0.333496 28.3333V1.66667C0.333496 1.22464 0.509091 0.800716 0.821652 0.488155C1.13421 0.175595 1.55814 0 2.00016 0ZM4.0648 6.85301C3.81335 6.99205 3.66683 7.25788 3.66683 7.54521V12.5C3.66683 13.1867 4.4745 13.6113 5.07348 13.2754C6.35425 12.5574 8.34387 11.6667 10.3335 11.6667C13.6668 11.6667 15.3335 15 18.6668 15C22.0002 15 22.0002 13.3333 22.0002 13.3333V8.84836C22.0002 8.22888 21.336 7.80321 20.7439 7.98547C20.1493 8.16851 19.4081 8.33333 18.6668 8.33333C15.3335 8.33333 13.6668 5 10.3335 5C7.6893 5 5.04511 6.31095 4.0648 6.85301Z" fill="white" fill-opacity="0.5"/>
</svg>
