<svg width="28" height="28" viewBox="0 0 28 28" fill="none" xmlns="http://www.w3.org/2000/svg">
<path fill-rule="evenodd" clip-rule="evenodd" d="M11.0836 3.49984H16.917C17.2264 3.49984 17.5231 3.37692 17.7419 3.15813C17.9607 2.93934 18.0836 2.64259 18.0836 2.33317C18.0836 2.02375 17.9607 1.72701 17.7419 1.50821C17.5231 1.28942 17.2264 1.1665 16.917 1.1665H11.0836C10.7742 1.1665 10.4775 1.28942 10.2587 1.50821C10.0399 1.72701 9.91695 2.02375 9.91695 2.33317C9.91695 2.64259 10.0399 2.93934 10.2587 3.15813C10.4775 3.37692 10.7742 3.49984 11.0836 3.49984ZM21.4786 6.99984L22.412 6.0665C22.6316 5.84681 22.7551 5.54885 22.7551 5.23817C22.7551 4.92748 22.6316 4.62952 22.412 4.40983C22.1923 4.19015 21.8943 4.06673 21.5836 4.06673C21.2729 4.06673 20.975 4.19015 20.7553 4.40983L19.5886 5.5765C17.1308 4.10474 14.202 3.63185 11.4059 4.25529C8.60979 4.87872 6.15933 6.55097 4.55951 8.92744C2.95969 11.3039 2.33241 14.2035 2.80694 17.0287C3.28146 19.8539 4.82164 22.3895 7.11007 24.1129C9.39851 25.8363 12.2608 26.6162 15.1072 26.2919C17.9536 25.9676 20.5671 24.5638 22.4093 22.3698C24.2514 20.1759 25.1817 17.3588 25.0086 14.4993C24.8355 11.6397 23.572 8.95553 21.4786 6.99984ZM14.0003 23.9165C12.2697 23.9165 10.578 23.4033 9.13905 22.4419C7.70012 21.4804 6.57861 20.1138 5.91635 18.515C5.25408 16.9161 5.0808 15.1568 5.41842 13.4595C5.75604 11.7621 6.5894 10.203 7.81311 8.97932C9.03682 7.75561 10.5959 6.92225 12.2933 6.58463C13.9906 6.24701 15.7499 6.42029 17.3488 7.08256C18.9476 7.74482 20.3142 8.86633 21.2757 10.3053C22.2371 11.7442 22.7503 13.4359 22.7503 15.1665C22.7503 17.4871 21.8284 19.7127 20.1875 21.3537C18.5465 22.9946 16.3209 23.9165 14.0003 23.9165ZM13.1753 8.50821C13.3941 8.28942 13.6909 8.1665 14.0003 8.1665C14.3097 8.1665 14.6065 8.28942 14.8252 8.50821C15.044 8.72701 15.167 9.02375 15.167 9.33317V15.1665C15.167 15.4759 15.044 15.7727 14.8252 15.9915C14.6065 16.2103 14.3097 16.3332 14.0003 16.3332C13.6909 16.3332 13.3941 16.2103 13.1753 15.9915C12.9565 15.7727 12.8336 15.4759 12.8336 15.1665V9.33317C12.8336 9.02375 12.9565 8.72701 13.1753 8.50821Z" fill="white"/>
</svg>
