<svg width="34" height="31" viewBox="0 0 34 31" fill="none" xmlns="http://www.w3.org/2000/svg">
<path d="M33.6668 7.33341V14.6176C33.6668 15.6855 32.505 16.3884 31.4804 16.0872C30.8355 15.8977 30.3335 15.3278 30.3335 14.6557V9.00008C30.3335 8.07961 29.5873 7.33341 28.6668 7.33341H5.3335C4.41302 7.33341 3.66683 8.07961 3.66683 9.00008V22.3334C3.66683 23.2539 4.41302 24.0001 5.3335 24.0001H17.1418C18.0232 24.0001 18.6668 24.7853 18.6668 25.6667C18.6668 26.5482 18.0232 27.3334 17.1418 27.3334H3.66683C1.8335 27.3334 0.333496 25.8501 0.333496 24.0001V4.00008C0.333496 2.15008 1.81683 0.666748 3.66683 0.666748H12.2861C13.1702 0.666748 14.018 1.01794 14.6431 1.64306L16.2679 3.26785C16.7368 3.73669 17.3727 4.00008 18.0357 4.00008H30.3335C32.1668 4.00008 33.6668 5.48341 33.6668 7.33341ZM25.3335 29.1949C25.3335 29.8427 26.0401 30.2428 26.5956 29.9095L32.4759 26.3813C33.0153 26.0577 33.0153 25.2758 32.4759 24.9522L26.5956 21.424C26.0401 21.0907 25.3335 21.4908 25.3335 22.1386V29.1949Z" fill="white" fill-opacity="0.5"/>
</svg>
