<svg width="140" height="40" viewBox="0 0 140 40" fill="none" xmlns="http://www.w3.org/2000/svg">
<path fill-rule="evenodd" clip-rule="evenodd" d="M76.0231 10.3224C76.3047 10.4396 76.6066 10.4999 76.9115 10.4999H76.9663C77.4286 10.4945 77.8789 10.3522 78.2604 10.091C78.642 9.82981 78.9377 9.4614 79.1103 9.03224C79.2828 8.60309 79.3244 8.13242 79.2299 7.6796C79.1355 7.22679 78.9091 6.81212 78.5793 6.4879C78.2495 6.16368 77.8312 5.94443 77.3771 5.85782C76.9229 5.77121 76.4533 5.82112 76.0275 6.00124C75.6017 6.18136 75.2387 6.48363 74.9844 6.86992C74.73 7.2562 74.5957 7.7092 74.5984 8.17178C74.5966 8.47686 74.6551 8.7793 74.7705 9.06169C74.886 9.34407 75.0561 9.60083 75.271 9.8172C75.486 10.0336 75.7416 10.2053 76.0231 10.3224ZM59.9955 26.4676C60.8612 26.0882 61.639 25.5335 62.2799 24.8385V24.8522C63.0602 25.6643 64.0162 26.2866 65.0745 26.6712C66.1327 27.0558 67.265 27.1925 68.3844 27.0707H77.2537C78.172 27.0876 79.0835 26.9096 79.9281 26.5485C80.7727 26.1873 81.5312 25.6512 82.1537 24.9754C82.8831 24.1783 83.4194 23.2239 83.7208 22.1861C84.0223 21.1482 84.0808 20.0549 83.892 18.9908C83.7072 17.4901 83.0142 16.098 81.9284 15.0465C80.8425 13.9949 79.4294 13.3473 77.9243 13.2115C76.3564 13.0579 74.7861 13.4805 73.5067 14.4003C72.2273 15.3201 71.326 16.6743 70.9712 18.2101C70.7652 19.8449 70.6966 21.4941 70.7659 23.1403C70.7522 23.2362 71.0807 23.4005 71.2039 23.4005C72.0252 23.1951 72.7506 22.9623 73.5171 22.6884C73.7069 22.6181 73.8665 22.4841 73.9688 22.3094C74.0711 22.1346 74.1098 21.9298 74.0782 21.7297V19.9083C74.0693 19.4363 74.1625 18.9679 74.3515 18.5353C74.5405 18.1027 74.8208 17.7161 75.1732 17.4021C75.6255 17.004 76.1778 16.7369 76.7706 16.6295C77.3634 16.5221 77.9743 16.5785 78.5374 16.7926C79.1006 17.0067 79.5947 17.3705 79.9666 17.8446C80.3385 18.3188 80.5741 18.8856 80.6481 19.4838C80.7889 20.0397 80.7929 20.6216 80.6596 21.1794C80.5264 21.7372 80.26 22.2544 79.8832 22.6866C79.5064 23.1188 79.0305 23.4532 78.4962 23.661C77.962 23.8688 77.3853 23.9439 76.8157 23.8798H67.4536C66.9855 23.9034 66.5176 23.8285 66.0801 23.66C65.6427 23.4914 65.2454 23.233 64.914 22.9013C64.5825 22.5697 64.3242 22.1722 64.1558 21.7345C63.9873 21.2968 63.9125 20.8287 63.936 20.3602V15.6903C63.9625 15.5102 63.9285 15.3264 63.8393 15.1678C63.7501 15.0092 63.6108 14.8847 63.4433 14.8138C62.7211 14.5228 61.9804 14.2803 61.226 14.088C60.5827 13.9647 60.5827 14.0469 60.5827 14.6769V20.6615C60.5051 21.5144 60.1018 22.3046 59.4568 22.8676C58.8118 23.4306 57.9747 23.7232 57.1196 23.6844C56.2646 23.6456 55.4574 23.2784 54.8659 22.6593C54.2745 22.0401 53.9444 21.2167 53.9444 20.3602V14.8823V7.81571C53.9789 7.56573 53.9272 7.31145 53.7978 7.09484C53.6684 6.87823 53.469 6.71224 53.2326 6.62427C52.6053 6.37551 51.9602 6.17408 51.3027 6.02169C50.5636 5.87104 50.5636 5.92582 50.5636 6.66535V20.2781C50.5752 20.5901 50.5523 20.9024 50.4952 21.2093C50.3206 21.9816 49.8753 22.6658 49.2401 23.1381C48.6049 23.6104 47.8218 23.8395 47.0323 23.784C46.196 23.7349 45.4104 23.3666 44.8374 22.7551C44.2644 22.1436 43.9478 21.3354 43.9527 20.4972V15.6355C43.9799 15.45 43.9449 15.2608 43.8533 15.0973C43.7617 14.9338 43.6186 14.8052 43.4463 14.7316C42.8659 14.4605 42.2666 14.2317 41.6533 14.0469C40.5857 13.773 40.5857 13.8552 40.5857 14.8823V20.4698C40.5966 20.9638 40.4956 21.4539 40.2903 21.9033C40.0849 22.3527 39.7806 22.7498 39.4 23.0647C39.0194 23.3796 38.5725 23.6042 38.0928 23.7217C37.613 23.8391 37.113 23.8464 36.6301 23.7429C35.8477 23.5941 35.1433 23.1726 34.6421 22.5532C34.1409 21.9339 33.8754 21.1569 33.8926 20.3602C33.9302 18.8274 33.4137 17.3325 32.4382 16.15C31.4626 14.9676 30.0933 14.1771 28.582 13.9236C26.4284 13.7518 24.2665 13.7107 22.108 13.8004C22.0083 13.8148 21.9132 13.8519 21.8302 13.9089C21.7471 13.9659 21.6782 14.0412 21.6289 14.1291C21.2953 14.8261 21.0206 15.5499 20.8077 16.2929C20.616 17.1009 20.6982 17.1009 21.4783 17.1009H27.5418C27.9749 17.1078 28.4023 17.2014 28.7986 17.3763C29.195 17.5512 29.5523 17.8037 29.8496 18.119C30.1468 18.4343 30.378 18.8059 30.5293 19.212C30.6807 19.6181 30.7492 20.0504 30.7309 20.4835C30.7218 21.3625 30.3641 22.2018 29.7365 22.8169C29.1089 23.432 28.2628 23.7725 27.3844 23.7634C26.5059 23.7543 25.667 23.3965 25.0522 22.7685C24.4375 22.1406 24.0972 21.294 24.1063 20.415V19.2646C24.1369 19.0824 24.1032 18.8952 24.0107 18.7352C23.9183 18.5752 23.773 18.4525 23.5999 18.3882L23.3216 18.2889C22.6257 18.0404 21.9898 17.8133 21.3004 17.6076C20.9172 17.4706 20.7666 17.6897 20.7666 18.0595V20.4698C20.754 21.2984 20.4277 22.0914 19.8536 22.6886C19.2795 23.2859 18.5003 23.6431 17.6733 23.6881C16.8846 23.7357 16.1049 23.4996 15.4749 23.0224C14.8449 22.5453 14.4062 21.8585 14.2378 21.0861C14.1691 20.7627 14.1348 20.422 14.1005 20.0797L14.1004 20.0797C14.0664 19.7407 14.0322 19.4 13.9641 19.0729C13.6223 17.4115 12.6532 15.9461 11.2585 14.9818C9.86386 14.0175 8.1512 13.6287 6.47718 13.8962C5.31377 14.0135 4.2063 14.4539 3.27994 15.1678C2.35358 15.8817 1.64525 16.8407 1.23498 17.9362C0.743818 18.9921 0.56033 20.1652 0.7056 21.3208C0.850869 22.4763 1.319 23.5674 2.05621 24.4687C2.53096 25.0277 3.03345 25.5625 3.56181 26.071C3.68508 26.2435 3.86351 26.3688 4.0676 26.4261C4.27168 26.4833 4.48919 26.4692 4.68416 26.386C5.39587 26.0847 6.08021 25.715 6.76455 25.3452L6.76458 25.3452L6.76461 25.3452C7.13416 25.1124 7.07941 24.8659 6.76461 24.5646C6.14412 23.9803 5.53276 23.3822 4.93052 22.7705C4.49745 22.3591 4.19028 21.8329 4.04486 21.2533C3.89945 20.6738 3.9218 20.0648 4.10929 19.4975C4.29823 18.8555 4.67696 18.2859 5.19565 17.8634C5.71434 17.441 6.34869 17.1855 7.01524 17.1307C7.6818 17.0759 8.34933 17.2242 8.93001 17.5562C9.5107 17.8882 9.97734 18.3883 10.2685 18.9908C10.5765 19.5753 10.692 20.2423 10.5986 20.8965C10.5052 21.5507 10.2076 22.1587 9.74842 22.6336C9.4007 23.009 9.02852 23.3721 8.6605 23.7312C8.47803 23.9092 8.29658 24.0862 8.11964 24.2633C7.47806 24.895 6.8384 25.5305 6.1985 26.1662L6.19791 26.1668L6.19787 26.1669L6.19784 26.1669C5.13155 27.2263 4.06459 28.2864 2.98694 29.3304C2.59001 29.6591 2.59001 29.9193 2.98694 30.1384C3.56181 30.4808 4.27354 30.8231 4.93052 31.1244C5.16032 31.2421 5.42462 31.2737 5.67565 31.2134C5.92669 31.1532 6.14788 31.005 6.29924 30.7957C7.7024 29.3816 9.10555 27.9904 10.5144 26.5935L10.5146 26.5934L10.5147 26.5932L10.515 26.5929L10.5153 26.5926C10.989 26.123 11.4632 25.6528 11.9384 25.1808L12.3079 24.8385C12.9482 25.5248 13.7227 26.072 14.5833 26.4462C15.4439 26.8203 16.3723 27.0134 17.3106 27.0134C18.2489 27.0134 19.1772 26.8203 20.0378 26.4462C20.8984 26.072 21.673 25.5248 22.3133 24.8385C22.9529 25.5161 23.7241 26.056 24.5797 26.4249C25.4352 26.7939 26.357 26.9842 27.2886 26.9842C28.2202 26.9842 29.1419 26.7939 29.9975 26.4249C30.853 26.056 31.6242 25.5161 32.2639 24.8385C32.904 25.5226 33.6777 26.068 34.537 26.4408C35.3964 26.8137 36.323 27.0061 37.2597 27.0061C38.1963 27.0061 39.123 26.8137 39.9823 26.4408C40.8417 26.068 41.6154 25.5226 42.2555 24.8385C42.8953 25.5183 43.6674 26.06 44.5242 26.4302C45.3809 26.8005 46.3044 26.9915 47.2376 26.9915C48.1709 26.9915 49.0943 26.8005 49.9511 26.4302C50.8079 26.06 51.5799 25.5183 52.2198 24.8385C52.8606 25.5335 53.6384 26.0882 54.5041 26.4676C55.3698 26.847 56.3047 27.0429 57.2498 27.0429C58.1949 27.0429 59.1298 26.847 59.9955 26.4676ZM55.45 34.0962C56.6271 34.3564 57.5852 33.8086 58.2558 32.3159L58.2285 32.2611C59.0908 33.8086 59.9667 34.329 61.2123 34.0141C61.7046 33.8796 62.1391 33.5869 62.4488 33.1811C62.7586 32.7752 62.9264 32.2787 62.9264 31.7681C62.9264 31.2575 62.7586 30.761 62.4488 30.3551C62.1391 29.9493 61.7046 29.6566 61.2123 29.5221C59.9941 29.1798 59.0771 29.7413 58.2285 31.234C57.3935 29.7002 56.5039 29.1935 55.2447 29.5495C54.7353 29.6832 54.2867 29.9868 53.9731 30.4101C53.6595 30.8334 53.4997 31.3511 53.5201 31.8777C53.54 32.4124 53.7424 32.9242 54.0935 33.3279C54.4446 33.7316 54.9233 34.0027 55.45 34.0962ZM40.9142 29.5495C39.6656 29.2539 38.6672 29.8017 37.9707 31.2316C36.9712 29.6913 36.1812 29.2235 35.015 29.5084C34.5093 29.6023 34.049 29.8611 33.7059 30.2446C33.3628 30.628 33.1564 31.1143 33.1189 31.6276C33.0813 32.1408 33.2148 32.652 33.4985 33.0813C33.7821 33.5106 34.1999 33.8338 34.6865 34.0003C34.9967 34.142 35.3378 34.2026 35.6778 34.1762C36.0177 34.1499 36.3454 34.0375 36.6301 33.8497C37.1271 33.4358 37.5852 32.9774 37.9988 32.4802C38.1733 33.0437 38.5484 33.5237 39.0529 33.8291C39.5574 34.1345 40.1564 34.2441 40.7363 34.1373C41.2817 34.0667 41.7845 33.8052 42.1555 33.3991C42.5265 32.9929 42.7418 32.4684 42.7631 31.9186C42.7844 31.3688 42.6104 30.8292 42.272 30.3955C41.9335 29.9618 41.4525 29.6621 40.9142 29.5495Z" fill="white"/>
<path fill-rule="evenodd" clip-rule="evenodd" d="M138.205 18.7834C138.225 16.5794 138.11 14.376 137.861 12.1858C137.804 11.56 137.69 10.9407 137.521 10.3354C137.449 10.0965 137.32 9.87867 137.145 9.70004C136.881 9.42487 136.599 9.16731 136.301 8.92901C136.25 8.8901 136.2 8.85111 136.149 8.81201C135.582 8.3738 134.996 7.92179 134.192 7.4178C131.189 5.43282 128.082 3.61056 124.884 1.95891C123.651 1.31124 122.664 0.848626 121.727 0.460027C121.332 0.276044 120.921 0.125427 120.501 0.00974566C120.339 -0.00778754 120.014 0.00974565 120.014 0.00974565C120.014 0.00974565 119.718 0.0277964 119.576 0.071428C118.419 0.433111 117.334 0.994671 116.37 1.73068C114.648 3.07354 113.309 4.84536 112.486 6.86882L112.758 6.77013C112.984 6.70349 113.218 6.67025 113.454 6.67144C113.663 6.67251 113.87 6.70155 114.071 6.75779C114.342 6.83181 114.644 6.9305 115.008 7.07237C115.828 7.41163 116.648 7.78172 117.418 8.15182C119.224 9.04004 121.16 10.0578 123.453 11.3716C126.246 12.963 128.515 14.3386 130.654 15.7264C131.653 16.3741 132.664 17.0711 133.521 17.6694C134.295 18.212 134.988 18.8621 135.58 19.6001C136.827 21.2075 137.672 23.0896 138.045 25.0898V24.7058L138.05 24.7271C138.223 23.0803 138.247 20.876 138.205 18.7834Z" fill="#F6A033"/>
<path fill-rule="evenodd" clip-rule="evenodd" d="M134.42 21.4696C134.797 21.1006 135.034 20.6123 135.092 20.0879L135.129 20.1311C136.135 21.4563 136.883 22.9585 137.336 24.5599C137.735 26.0931 137.778 27.6962 137.463 29.2466L137.482 29.2403C137.444 29.4621 137.411 29.6161 137.331 29.7787C137.281 29.8992 137.212 30.0115 137.126 30.1113C136.946 30.327 136.755 30.5329 136.553 30.7281C136.05 31.1711 135.521 31.5831 134.969 31.9617C133.6 32.9117 132.065 33.8986 130.135 35.0459C127.768 36.4522 125.648 37.5995 123.656 38.5864C122.96 38.938 122.127 39.3328 121.252 39.672C120.918 39.799 120.576 39.9041 120.229 39.9866C120.112 40.0006 119.994 40.0006 119.877 39.9866C119.756 40.0004 119.634 40.0004 119.514 39.9866C118.939 39.8327 118.38 39.6262 117.843 39.3698C116.783 38.8825 115.71 38.3829 114.317 37.6489C111.512 36.1808 108.99 34.6819 106.524 33.0967C107.213 33.322 107.918 33.4932 108.633 33.6087C109.326 33.7232 110.027 33.7809 110.729 33.7814H111.056C112.515 33.7525 113.953 33.4206 115.278 32.8068C116.733 32.1345 117.855 31.5855 118.903 31.0365C121.209 29.8399 123.582 28.5075 126.017 27.0827C127.725 26.1328 129.92 24.8004 132.04 23.3386C132.54 22.987 133.039 22.6292 133.575 22.2159C133.873 21.9862 134.155 21.7368 134.42 21.4696Z" fill="#F08136"/>
<path d="M137.447 29.4205C137.596 28.7105 137.67 27.987 137.669 27.2616C137.671 26.3483 137.557 25.4384 137.33 24.5538C136.878 22.9523 136.129 21.45 135.123 20.125C135.065 20.6494 134.828 21.1377 134.451 21.5067C134.186 21.7698 133.904 22.015 133.607 22.2407C133.07 22.654 132.571 23.0117 132.071 23.3633C130.752 24.2762 129.39 25.1336 128.145 25.8306C134.537 24.856 136.732 27.5392 137.447 29.4205Z" fill="#ED6E28"/>
<path fill-rule="evenodd" clip-rule="evenodd" d="M110.735 33.2063H110.525L110.562 33.2125C109.348 33.2196 108.139 33.0471 106.975 32.7006C106.488 32.5558 106.015 32.3757 105.557 32.1622L105.545 32.2019C104.374 31.6215 103.523 30.9934 103.047 30.5615C102.716 30.3047 102.485 29.9398 102.394 29.5301C102.296 29.1695 102.221 28.8027 102.172 28.4321C102.004 27.3252 101.909 26.2084 101.889 25.0889C101.802 22.745 101.741 20.2037 101.802 17.1196C101.827 15.9476 101.876 14.7757 101.938 13.6469C101.984 12.8616 102.071 12.0793 102.197 11.3029C102.256 10.9576 102.334 10.6158 102.431 10.279C102.5 10.044 102.63 9.83134 102.807 9.66219C103.132 9.32737 103.483 9.01805 103.855 8.73696C104.808 8.00704 105.8 7.32959 106.827 6.70761C109.644 4.91265 112.486 3.29041 115.241 1.85938C114.059 2.90975 113.074 4.16309 112.332 5.56032C111.773 6.58506 111.389 7.69636 111.197 8.84799C111.131 9.15624 111.093 9.4702 111.086 9.78556C110.92 11.5929 110.772 13.2521 110.772 14.862V25.9217C110.834 27.3157 110.895 28.4506 110.994 29.5116C111.04 30.168 111.127 30.821 111.253 31.4669C111.306 31.7608 111.402 32.0455 111.536 32.312C111.647 32.5212 111.786 32.7143 111.95 32.8856C112.041 32.9783 112.142 33.061 112.252 33.1323H112.054C111.617 33.1942 111.176 33.219 110.735 33.2063Z" fill="#FDC52C"/>
<path fill-rule="evenodd" clip-rule="evenodd" d="M112.24 33.1249C112.135 33.0554 112.038 32.9755 111.95 32.8864C111.786 32.7151 111.647 32.5221 111.537 32.3127C111.402 32.0463 111.306 31.7616 111.253 31.4677C111.127 30.8218 111.041 30.1688 110.994 29.5124C110.896 28.4514 110.834 27.3165 110.772 25.9224V23.8438C109.916 26.2617 107.61 31.2025 103.184 30.6658C104.296 31.63 105.601 32.345 107.012 32.763C108.092 33.0845 109.211 33.2563 110.337 33.2737L110.336 33.2766C110.65 33.2922 111.475 33.2858 112.261 33.135L112.24 33.1249Z" fill="#F9AF1A"/>
<path fill-rule="evenodd" clip-rule="evenodd" d="M116.292 1.76646C115.463 2.39091 114.48 3.30702 113.76 4.45386C113.736 4.49233 113.714 4.52956 113.693 4.56558C113.195 5.29055 112.773 6.0691 112.437 6.88939L112.708 6.7907C112.934 6.72389 113.169 6.69064 113.404 6.69201C113.613 6.69323 113.82 6.72227 114.021 6.77836C114.333 6.86883 114.641 6.97369 114.946 7.09294C115.778 7.41986 116.604 7.80229 117.362 8.17855C118.353 8.65893 119.371 9.19987 120.461 9.77964C120.672 9.8922 120.887 10.0062 121.104 10.1215C116.524 4.79219 118.379 1.412 119.329 0.166016C118.234 0.525764 117.207 1.0657 116.29 1.76359L116.292 1.76646Z" fill="#F28D25"/>
</svg>
