<svg width="34" height="32" viewBox="0 0 34 32" fill="none" xmlns="http://www.w3.org/2000/svg">
<path fill-rule="evenodd" clip-rule="evenodd" d="M13.0764 28.0759C13.0764 30.2431 11.3198 32 9.15287 32H7.19108C5.02416 32 3.26752 30.2431 3.26752 28.0759V17.9358C3.26752 17.0342 2.53679 16.3034 1.6354 16.3034C0.139589 16.3034 -0.568255 14.4585 0.543572 13.4577L14.3753 1.00735C15.8674 -0.335785 18.1326 -0.335783 19.6247 1.00735L33.4564 13.4577C34.5683 14.4585 33.8604 16.3034 32.3646 16.3034C31.4632 16.3034 30.7325 17.0342 30.7325 17.9358V28.0759C30.7325 30.2431 28.9758 32 26.8089 32H24.8471C22.6802 32 20.9236 30.2431 20.9236 28.0759V24.1517C20.9236 21.9845 19.1669 20.2276 17 20.2276C14.8331 20.2276 13.0764 21.9845 13.0764 24.1517V28.0759ZM27.0711 12.7702C27.5265 13.1428 27.7907 13.7003 27.7907 14.2887V16.3021V26.1124C27.7907 27.1961 26.9123 28.0745 25.8289 28.0745C24.7454 28.0745 23.8671 27.1961 23.8671 26.1124V23.1693C23.8671 19.3766 20.793 16.3021 17.0008 16.3021C13.2087 16.3021 10.1346 19.3766 10.1346 23.1693V26.1124C10.1346 27.1961 9.25628 28.0745 8.17282 28.0745C7.08936 28.0745 6.21104 27.1961 6.21104 26.1124V16.3021V14.2887C6.21104 13.7003 6.47514 13.1428 6.93054 12.7702L15.7586 5.54619C16.4812 4.95484 17.5205 4.95484 18.2431 5.54619L27.0711 12.7702Z" fill="white" fill-opacity="0.5"/>
</svg>
