<svg width="40" height="16" viewBox="0 0 40 16" fill="none" xmlns="http://www.w3.org/2000/svg">
<path fill-rule="evenodd" clip-rule="evenodd" d="M10.8376 0.740495C11.0015 1.61485 11.1655 2.62035 11.3294 3.78616L11.9196 7.4293L12.8704 0.696777H18.1821V15.2693H14.6246V5.35999L13.1983 15.2985H10.7556L9.24734 5.60773V15.313H5.67342V0.740495H10.8376ZM0.3125 0.740437H3.88642V15.2984H0.3125V0.740437ZM39.6584 6.29258C39.6042 6.00755 39.475 5.73793 39.2814 5.50566C39.0508 5.22153 38.7316 5.00368 38.3633 4.87904C37.9122 4.71132 37.4258 4.6318 36.937 4.64588C36.4319 4.6435 35.9309 4.72761 35.4616 4.89361C35.0403 5.07575 34.6662 5.33381 34.3631 5.65139V0.740437H30.7236V15.313H34.2976V14.1035C34.5934 14.4388 34.9683 14.7124 35.396 14.905C35.863 15.0796 36.3648 15.1688 36.8714 15.1673C37.4551 15.1723 38.0267 15.0198 38.5109 14.7301C38.9445 14.4758 39.2637 14.0941 39.4125 13.6517C39.5792 13.0609 39.6618 12.4538 39.6584 11.8447V7.93928C39.6973 7.39092 39.6973 6.84094 39.6584 6.29258ZM36.5272 12.3402C36.5445 12.4535 36.5343 12.5688 36.4973 12.6783C36.4604 12.7879 36.3974 12.8891 36.3128 12.9753C36.2282 13.0614 36.1238 13.1304 36.0066 13.1777C35.8895 13.225 35.7623 13.2495 35.6337 13.2495C35.505 13.2495 35.3779 13.225 35.2607 13.1777C35.1436 13.1304 35.0392 13.0614 34.9546 12.9753C34.8699 12.8891 34.807 12.7879 34.7701 12.6783C34.7331 12.5688 34.7229 12.4535 34.7402 12.3402V7.38552C34.7696 7.19339 34.8763 7.01723 35.0405 6.88969C35.2048 6.76214 35.4156 6.69186 35.6337 6.69186C35.8518 6.69186 36.0625 6.76214 36.2268 6.88969C36.3911 7.01723 36.4978 7.19339 36.5272 7.38552V12.3402ZM26.5431 0.988228C27.175 1.0942 27.7507 1.38076 28.1825 1.80429C28.4997 2.17021 28.7083 2.60118 28.7891 3.05753C28.8989 3.96242 28.9427 4.87268 28.9202 5.7826V10.8247C28.9594 11.6834 28.8934 12.5434 28.7235 13.3895C28.6244 13.7834 28.3894 14.14 28.0513 14.4095C27.7313 14.7456 27.327 15.0101 26.871 15.1819C26.1723 15.2853 25.4642 15.3292 24.7561 15.313H19.9854V0.740494H22.8708C24.1016 0.694092 25.3343 0.777247 26.5431 0.988228ZM25.1372 12.3336C25.3028 12.1837 25.3955 11.982 25.3955 11.7719V4.12133C25.3955 3.91126 25.3028 3.70957 25.1372 3.55968C24.9717 3.40978 24.7465 3.32366 24.5102 3.31984H23.6085V12.5734H24.5102C24.7465 12.5696 24.9717 12.4835 25.1372 12.3336Z" fill="#E8E8E8"/>
</svg>
