<svg width="36" height="34" viewBox="0 0 36 34" fill="none" xmlns="http://www.w3.org/2000/svg">
<path fillRule="evenodd" clipRule="evenodd" d="M29.9111 22.2045L29.9111 22.2045C29.3749 23.4808 29.3773 25.189 30.4388 26.594L31.8728 28.4922C31.8381 28.646 31.7953 28.8064 31.7429 28.9678C31.5319 29.6172 31.2709 29.9929 30.9977 30.2034C29.9579 30.2331 28.0264 29.9371 26.5503 28.5383C25.1538 27.215 23.236 26.7234 21.4764 27.0232C20.0339 27.2689 17.287 27.0715 15.1698 23.5385C14.5469 21.7392 13.2181 20.5237 11.5796 19.9852C10.5494 19.6466 9.524 19.6148 8.66442 19.6899C8.2389 17.7041 7.51158 15.1037 6.27973 13.0107C6.84594 12.279 7.4367 11.266 7.63195 10.0025C7.84141 8.64716 7.4112 7.53777 6.9928 6.82119C6.60157 6.15114 6.10858 5.63484 5.86195 5.37875L5.85923 5.38133L5.86195 5.37875C5.69054 5.20076 5.51739 5.00064 5.34919 4.78177C6.12678 4.73386 6.93868 4.59614 7.77515 4.3477C10.4768 7.86257 15.8012 10.8492 21.7489 8.44232L21.8893 8.38548C22.5887 8.10222 22.9943 7.93792 23.3849 7.83872C23.5621 7.79374 23.6715 7.7811 23.7325 7.77848C23.7616 7.77722 23.7787 7.77831 23.7863 7.77903C23.7897 7.77935 23.792 7.77967 23.7934 7.77992C23.7951 7.78019 23.7958 7.78038 23.7958 7.78038C25.3795 8.18061 27.4767 9.00939 29.104 9.70619C28.8711 11.7246 28.58 14.6255 28.5205 16.9834C28.4958 17.9634 28.8087 18.8982 29.3689 19.6527L29.4723 19.792C29.8167 20.2558 30.052 20.5726 30.2277 20.8189C30.1938 21.4254 30.0284 21.9251 29.9111 22.2045ZM1.03228 4.104C1.6025 5.66252 2.53024 6.93203 3.33977 7.77261C3.80458 8.25526 4.28487 8.81719 4.18287 9.47721C4.0755 10.172 3.64268 10.7989 3.14768 11.3251C2.37302 12.1487 2.40112 13.4305 3.02547 14.3715C4.34177 16.3554 5.08839 19.409 5.47712 21.5558C5.69408 22.7538 7.04379 23.484 8.24632 23.2459C9.74612 22.9491 11.4773 23.0584 11.9464 24.9217C14.9214 30.238 19.3762 30.8957 22.0666 30.4374C22.8104 30.3107 23.595 30.5267 24.1409 31.0441C26.8728 33.6328 30.4362 33.8425 32.0106 33.582C35.5 32.1963 35.5 27.5198 35.5 27.5198L33.2303 24.5156C33.0198 24.2369 32.9966 23.8594 33.1316 23.5379C33.3798 22.9471 33.7244 21.8923 33.7234 20.5916C33.7234 20.5736 33.7234 20.556 33.7233 20.5387C33.7233 20.2969 33.7233 20.123 33.6914 19.9551C33.6098 19.5257 33.32 19.1354 32.2889 17.7471C32.2528 17.6984 32.2158 17.6486 32.1778 17.5974C32.0645 17.4448 32.004 17.2597 32.0088 17.0702C32.0779 14.3331 32.4874 10.7247 32.7206 8.85116C32.8135 8.1051 32.4235 7.38224 31.7336 7.07244C30.0871 6.33312 26.9976 5.01496 24.6566 4.42336C23.2823 4.07604 21.9467 4.61889 20.6314 5.15348L20.4317 5.23451C15.6615 7.16493 11.2449 4.045 9.75518 0.98276C9.48991 0.437461 8.78429 0.167357 8.24049 0.441697C5.65113 1.748 3.44824 1.42178 2.00131 0.746831C1.35912 0.447271 0.471445 0.780692 0.500705 1.48449C0.52733 2.12491 0.628637 2.73844 0.783869 3.31898C0.85066 3.56877 0.927435 3.81245 1.01254 4.04954L1.03228 4.104Z" fill="white" fill-opacity="0.5"/>
</svg>
