<svg width="38" height="30" viewBox="0 0 38 30" fill="none" xmlns="http://www.w3.org/2000/svg">
<path d="M23.1665 10.4167C23.719 10.4167 24.2489 10.6362 24.6396 11.0269C25.0303 11.4176 25.2498 11.9475 25.2498 12.5C25.2498 13.0525 25.0303 13.5824 24.6396 13.9731C24.2489 14.3638 23.719 14.5833 23.1665 14.5833C22.614 14.5833 22.0841 14.3638 21.6934 13.9731C21.3027 13.5824 21.0832 13.0525 21.0832 12.5C21.0832 11.9475 21.3027 11.4176 21.6934 11.0269C22.0841 10.6362 22.614 10.4167 23.1665 10.4167ZM14.8332 10.4167C15.3857 10.4167 15.9156 10.6362 16.3063 11.0269C16.697 11.4176 16.9165 11.9475 16.9165 12.5C16.9165 13.0525 16.697 13.5824 16.3063 13.9731C15.9156 14.3638 15.3857 14.5833 14.8332 14.5833C14.2806 14.5833 13.7507 14.3638 13.36 13.9731C12.9693 13.5824 12.7498 13.0525 12.7498 12.5C12.7498 11.9475 12.9693 11.4176 13.36 11.0269C13.7507 10.6362 14.2806 10.4167 14.8332 10.4167ZM12.8325 20.4721C12.0533 19.5633 12.8323 18.3333 14.0293 18.3333H23.9704C25.1674 18.3333 25.9463 19.5633 25.1672 20.4721C23.662 22.2278 21.4477 23.3333 18.9998 23.3333C16.5519 23.3333 14.3377 22.2278 12.8325 20.4721ZM0.666504 15C0.666504 12.2469 2.33231 9.88246 4.72642 8.86956C5.16617 8.68351 5.54446 8.36636 5.76825 7.94456C8.28002 3.21027 13.2672 0 18.9998 0C24.7344 0 29.7229 3.21238 32.2485 7.94922C32.4719 8.36835 32.8483 8.68346 33.2854 8.86933C35.6671 9.8821 37.3332 12.2467 37.3332 15C37.3332 17.7533 35.6671 20.1179 33.2854 21.1307C32.8483 21.3165 32.4719 21.6317 32.2485 22.0508C29.7229 26.7876 24.7344 30 18.9998 30C13.2672 30 8.28002 26.7897 5.76825 22.0554C5.54446 21.6336 5.16617 21.3165 4.72642 21.1304C2.33231 20.1175 0.666504 17.7531 0.666504 15ZM18.9998 3.33333C13.8648 3.33333 9.51197 6.65018 7.9424 11.2223C7.85248 11.4842 7.61008 11.6667 7.33317 11.6667C6.44912 11.6667 5.60127 12.0179 4.97615 12.643C4.35103 13.2681 3.99984 14.1159 3.99984 15C3.99984 15.8841 4.35103 16.7319 4.97615 17.357C5.60127 17.9821 6.44912 18.3333 7.33317 18.3333C7.61008 18.3333 7.85248 18.5158 7.9424 18.7777C9.51197 23.3498 13.8648 26.6667 18.9998 26.6667C24.1349 26.6667 28.4877 23.3498 30.0573 18.7777C30.1472 18.5158 30.3896 18.3333 30.6665 18.3333C31.5506 18.3333 32.3984 17.9821 33.0235 17.357C33.6486 16.7319 33.9998 15.8841 33.9998 15C33.9998 14.1159 33.6486 13.2681 33.0235 12.643C32.3984 12.0179 31.5506 11.6667 30.6665 11.6667C30.3896 11.6667 30.1472 11.4842 30.0573 11.2223C28.4877 6.65018 24.1349 3.33333 18.9998 3.33333Z" fill="white" fill-opacity="0.5"/>
</svg>
