<svg width="18" height="22" viewBox="0 0 18 22" fill="none" xmlns="http://www.w3.org/2000/svg">
<path d="M9.79292 21.4999C7.96428 21.3104 6.17031 20.8707 4.46125 20.1933L4.09958 20.0766C3.76491 19.9687 3.42135 19.8906 3.07292 19.8433L0.15625 19.4816V9.05161L3.22458 8.56161C4.41747 7.58678 5.38471 6.3648 6.05958 4.97995C6.33958 4.30328 6.54958 3.67328 6.73625 3.14828C6.82958 2.86828 6.92292 2.59995 7.00458 2.37828C7.2432 1.711 7.64414 1.1136 8.17125 0.639945L8.31125 0.499946H8.47458C9.53625 0.371612 11.7179 0.593279 12.2546 2.48328C12.5079 3.61534 12.4597 4.79406 12.1146 5.90161L11.6363 7.18495H14.7629C15.1646 7.18184 15.5628 7.2598 15.9336 7.41416C16.3045 7.56851 16.6404 7.79609 16.9213 8.08328C17.2157 8.35737 17.4497 8.68984 17.6084 9.05945C17.7671 9.42907 17.847 9.82772 17.8429 10.2299C17.8464 10.959 17.6085 11.6687 17.1663 12.2483C17.2537 12.5279 17.3009 12.8186 17.3063 13.1116C17.3299 13.7717 17.1508 14.4231 16.7929 14.9783C16.8953 15.4929 16.8753 16.0244 16.7346 16.5299C16.6011 17.0016 16.3617 17.4365 16.0346 17.8016C16.1256 18.7106 15.8577 19.6192 15.2879 20.3333C14.902 20.736 14.4325 21.0491 13.9124 21.2507C13.3923 21.4522 12.8344 21.5373 12.2779 21.4999H9.79292Z" fill="#E8E8E8"/>
</svg>
