<svg width="34" height="28" viewBox="0 0 34 28" fill="none" xmlns="http://www.w3.org/2000/svg">
<path d="M32.0694 11.0771C32.8759 10.6333 33.6668 9.92056 33.6668 9.00008V4.00008C33.6668 2.15008 32.1668 0.666748 30.3335 0.666748H3.66683C1.8335 0.666748 0.333496 2.15008 0.333496 4.00008V9.00008C0.333496 9.92056 1.12445 10.6317 1.93193 11.0736C2.96822 11.6407 3.66683 12.7419 3.66683 14.0001C3.66683 15.2583 2.96822 16.3594 1.93193 16.9265C1.12445 17.3684 0.333496 18.0796 0.333496 19.0001V24.0001C0.333496 25.8334 1.8335 27.3334 3.66683 27.3334H30.3335C32.1668 27.3334 33.6668 25.8334 33.6668 24.0001V19.0001C33.6668 18.0796 32.8759 17.3668 32.0694 16.923C31.0371 16.3549 30.3335 15.2557 30.3335 14.0001C30.3335 12.7445 31.0371 11.6452 32.0694 11.0771ZM30.3335 7.27323C30.3335 7.86756 30.0064 8.40441 29.5406 8.7735C27.999 9.99493 27.0002 11.8927 27.0002 14.0001C27.0002 16.1075 27.999 18.0052 29.5406 19.2267C30.0064 19.5958 30.3335 20.1326 30.3335 20.7269V22.3334C30.3335 23.2539 29.5873 24.0001 28.6668 24.0001H5.3335C4.41302 24.0001 3.66683 23.2539 3.66683 22.3334V20.7269C3.66683 20.1326 3.99393 19.5958 4.45976 19.2267C6.00133 18.0052 7.00016 16.1075 7.00016 14.0001C7.00016 11.8501 6.01407 9.98367 4.4659 8.77173C3.9962 8.40404 3.66683 7.8657 3.66683 7.2692V5.66675C3.66683 4.74627 4.41302 4.00008 5.3335 4.00008H28.6668C29.5873 4.00008 30.3335 4.74627 30.3335 5.66675V7.27323ZM15.3335 19.0001H18.6668V22.3334H15.3335M15.3335 12.3334H18.6668V15.6667H15.3335M15.3335 5.66675H18.6668V9.00008H15.3335V5.66675Z" fill="white" fill-opacity="0.5"/>
</svg>
