<svg width="140" height="40" viewBox="0 0 140 40" fill="none" xmlns="http://www.w3.org/2000/svg">
<path fill-rule="evenodd" clip-rule="evenodd" d="M76.0231 10.3234C76.3047 10.4406 76.6066 10.5009 76.9115 10.5009H76.9663C77.4286 10.4955 77.8789 10.3532 78.2604 10.092C78.642 9.83079 78.9377 9.46237 79.1103 9.03322C79.2828 8.60406 79.3244 8.13339 79.2299 7.68058C79.1355 7.22777 78.9091 6.8131 78.5793 6.48888C78.2495 6.16466 77.8312 5.94541 77.3771 5.8588C76.9229 5.77219 76.4533 5.82209 76.0275 6.00221C75.6017 6.18233 75.2387 6.4846 74.9844 6.87089C74.73 7.25718 74.5957 7.71018 74.5984 8.17275C74.5966 8.47784 74.6551 8.78028 74.7705 9.06266C74.886 9.34505 75.0561 9.60181 75.271 9.81818C75.486 10.0345 75.7416 10.2063 76.0231 10.3234ZM59.9955 26.4686C60.8612 26.0892 61.639 25.5345 62.2799 24.8394V24.8531C63.0602 25.6653 64.0162 26.2876 65.0745 26.6722C66.1327 27.0568 67.265 27.1935 68.3844 27.0717H77.2537C78.172 27.0886 79.0835 26.9106 79.9281 26.5494C80.7727 26.1883 81.5312 25.6522 82.1537 24.9764C82.8831 24.1793 83.4194 23.2249 83.7208 22.187C84.0223 21.1492 84.0808 20.0558 83.892 18.9917C83.7072 17.4911 83.0142 16.099 81.9284 15.0474C80.8425 13.9959 79.4294 13.3483 77.9243 13.2125C76.3564 13.0589 74.7861 13.4815 73.5067 14.4013C72.2273 15.3211 71.326 16.6753 70.9712 18.2111C70.7652 19.8459 70.6966 21.495 70.7659 23.1413C70.7522 23.2371 71.0807 23.4015 71.2039 23.4015C72.0252 23.1961 72.7506 22.9632 73.5171 22.6893C73.7069 22.619 73.8665 22.4851 73.9688 22.3104C74.0711 22.1356 74.1098 21.9308 74.0782 21.7307V19.9093C74.0693 19.4372 74.1625 18.9689 74.3515 18.5363C74.5405 18.1037 74.8208 17.7171 75.1732 17.4031C75.6255 17.005 76.1778 16.7379 76.7706 16.6305C77.3634 16.5231 77.9743 16.5795 78.5374 16.7936C79.1006 17.0077 79.5947 17.3714 79.9666 17.8456C80.3385 18.3198 80.5741 18.8865 80.6481 19.4847C80.7889 20.0407 80.7929 20.6225 80.6596 21.1804C80.5264 21.7382 80.26 22.2554 79.8832 22.6876C79.5064 23.1198 79.0305 23.4542 78.4962 23.662C77.962 23.8698 77.3853 23.9449 76.8157 23.8808H67.4536C66.9855 23.9044 66.5176 23.8295 66.0801 23.6609C65.6427 23.4924 65.2454 23.234 64.914 22.9023C64.5825 22.5707 64.3242 22.1732 64.1558 21.7355C63.9873 21.2978 63.9125 20.8296 63.936 20.3612V15.6913C63.9625 15.5112 63.9285 15.3274 63.8393 15.1688C63.7501 15.0102 63.6108 14.8856 63.4433 14.8148C62.7211 14.5237 61.9804 14.2813 61.226 14.089C60.5827 13.9657 60.5827 14.0479 60.5827 14.6778V20.6625C60.5051 21.5154 60.1018 22.3056 59.4568 22.8686C58.8118 23.4316 57.9747 23.7242 57.1196 23.6853C56.2646 23.6465 55.4574 23.2794 54.8659 22.6602C54.2745 22.0411 53.9444 21.2177 53.9444 20.3612V14.8833V7.81669C53.9789 7.56671 53.9272 7.31243 53.7978 7.09582C53.6684 6.8792 53.469 6.71322 53.2326 6.62524C52.6053 6.37648 51.9602 6.17506 51.3027 6.02266C50.5636 5.87202 50.5636 5.9268 50.5636 6.66632V20.279C50.5752 20.591 50.5523 20.9034 50.4952 21.2103C50.3206 21.9826 49.8753 22.6668 49.2401 23.1391C48.6049 23.6113 47.8218 23.8405 47.0323 23.7849C46.196 23.7359 45.4104 23.3676 44.8374 22.7561C44.2644 22.1445 43.9478 21.3364 43.9527 20.4982V15.6365C43.9799 15.451 43.9449 15.2618 43.8533 15.0983C43.7617 14.9348 43.6186 14.8062 43.4463 14.7326C42.8659 14.4615 42.2666 14.2327 41.6533 14.0479C40.5857 13.774 40.5857 13.8561 40.5857 14.8833V20.4708C40.5966 20.9648 40.4956 21.4549 40.2903 21.9043C40.0849 22.3537 39.7806 22.7508 39.4 23.0657C39.0194 23.3806 38.5725 23.6052 38.0928 23.7227C37.613 23.8401 37.113 23.8474 36.6301 23.7439C35.8477 23.595 35.1433 23.1735 34.6421 22.5542C34.1409 21.9349 33.8754 21.1579 33.8926 20.3612C33.9302 18.8284 33.4137 17.3335 32.4382 16.151C31.4626 14.9686 30.0933 14.1781 28.582 13.9246C26.4284 13.7528 24.2665 13.7116 22.108 13.8014C22.0083 13.8157 21.9132 13.8529 21.8302 13.9098C21.7471 13.9668 21.6782 14.0422 21.6289 14.13C21.2953 14.8271 21.0206 15.5509 20.8077 16.2938C20.616 17.1018 20.6982 17.1018 21.4783 17.1018H27.5418C27.9749 17.1088 28.4023 17.2024 28.7986 17.3773C29.195 17.5521 29.5523 17.8047 29.8496 18.1199C30.1468 18.4352 30.378 18.8069 30.5293 19.213C30.6807 19.6191 30.7492 20.0514 30.7309 20.4845C30.7218 21.3634 30.3641 22.2028 29.7365 22.8179C29.1089 23.433 28.2628 23.7735 27.3844 23.7644C26.5059 23.7553 25.667 23.3974 25.0522 22.7695C24.4375 22.1415 24.0972 21.295 24.1063 20.416V19.2656C24.1369 19.0834 24.1032 18.8962 24.0107 18.7362C23.9183 18.5762 23.773 18.4535 23.5999 18.3891L23.3216 18.2899C22.6257 18.0414 21.9898 17.8143 21.3004 17.6085C20.9172 17.4716 20.7666 17.6907 20.7666 18.0605V20.4708C20.754 21.2994 20.4277 22.0923 19.8536 22.6896C19.2795 23.2869 18.5003 23.6441 17.6733 23.6891C16.8846 23.7366 16.1049 23.5005 15.4749 23.0234C14.8449 22.5462 14.4062 21.8595 14.2378 21.087C14.1691 20.7637 14.1348 20.423 14.1005 20.0807L14.1004 20.0807C14.0664 19.7416 14.0322 19.401 13.9641 19.0739C13.6223 17.4125 12.6532 15.9471 11.2585 14.9828C9.86386 14.0185 8.1512 13.6297 6.47718 13.8972C5.31377 14.0144 4.2063 14.4549 3.27994 15.1688C2.35358 15.8827 1.64525 16.8417 1.23498 17.9372C0.743818 18.9931 0.56033 20.1662 0.7056 21.3218C0.850869 22.4773 1.319 23.5684 2.05621 24.4697C2.53096 25.0287 3.03345 25.5634 3.56181 26.072C3.68508 26.2445 3.86351 26.3698 4.0676 26.427C4.27168 26.4843 4.48919 26.4702 4.68416 26.387C5.39587 26.0857 6.08021 25.7159 6.76455 25.3462L6.76458 25.3462L6.76461 25.3462C7.13416 25.1133 7.07941 24.8668 6.76461 24.5655C6.14412 23.9812 5.53276 23.3832 4.93052 22.7715C4.49745 22.3601 4.19028 21.8339 4.04486 21.2543C3.89945 20.6747 3.9218 20.0658 4.10929 19.4984C4.29823 18.8565 4.67696 18.2869 5.19565 17.8644C5.71434 17.442 6.34869 17.1865 7.01524 17.1317C7.6818 17.0769 8.34933 17.2252 8.93001 17.5572C9.5107 17.8892 9.97734 18.3893 10.2685 18.9917C10.5765 19.5763 10.692 20.2433 10.5986 20.8975C10.5052 21.5517 10.2076 22.1596 9.74842 22.6346C9.4007 23.0099 9.02852 23.3731 8.6605 23.7322C8.47803 23.9102 8.29658 24.0872 8.11964 24.2643C7.47806 24.8959 6.8384 25.5315 6.1985 26.1672L6.19791 26.1678L6.19787 26.1678L6.19784 26.1679C5.13155 27.2273 4.06459 28.2873 2.98694 29.3314C2.59001 29.66 2.59001 29.9202 2.98694 30.1394C3.56181 30.4817 4.27354 30.8241 4.93052 31.1254C5.16032 31.2431 5.42462 31.2747 5.67565 31.2144C5.92669 31.1541 6.14788 31.006 6.29924 30.7967C7.7024 29.3825 9.10555 27.9913 10.5144 26.5945L10.5146 26.5943L10.5147 26.5942L10.515 26.5939L10.5153 26.5936C10.989 26.124 11.4632 25.6538 11.9384 25.1818L12.3079 24.8394C12.9482 25.5257 13.7227 26.073 14.5833 26.4471C15.4439 26.8213 16.3723 27.0144 17.3106 27.0144C18.2489 27.0144 19.1772 26.8213 20.0378 26.4471C20.8984 26.073 21.673 25.5257 22.3133 24.8394C22.9529 25.5171 23.7241 26.0569 24.5797 26.4259C25.4352 26.7949 26.357 26.9852 27.2886 26.9852C28.2202 26.9852 29.1419 26.7949 29.9975 26.4259C30.853 26.0569 31.6242 25.5171 32.2639 24.8394C32.904 25.5236 33.6777 26.069 34.537 26.4418C35.3964 26.8146 36.323 27.007 37.2597 27.007C38.1963 27.007 39.123 26.8146 39.9823 26.4418C40.8417 26.069 41.6154 25.5236 42.2555 24.8394C42.8953 25.5193 43.6674 26.0609 44.5242 26.4312C45.3809 26.8014 46.3044 26.9924 47.2376 26.9924C48.1709 26.9924 49.0943 26.8014 49.9511 26.4312C50.8079 26.0609 51.5799 25.5193 52.2198 24.8394C52.8606 25.5345 53.6384 26.0892 54.5041 26.4686C55.3698 26.848 56.3047 27.0439 57.2498 27.0439C58.1949 27.0439 59.1298 26.848 59.9955 26.4686ZM55.45 34.0972C56.6271 34.3574 57.5852 33.8096 58.2558 32.3169L58.2285 32.2621C59.0908 33.8096 59.9667 34.33 61.2123 34.015C61.7046 33.8806 62.1391 33.5879 62.4488 33.182C62.7586 32.7762 62.9264 32.2797 62.9264 31.7691C62.9264 31.2584 62.7586 30.762 62.4488 30.3561C62.1391 29.9503 61.7046 29.6576 61.2123 29.5231C59.9941 29.1807 59.0771 29.7422 58.2285 31.235C57.3935 29.7012 56.5039 29.1944 55.2447 29.5505C54.7353 29.6842 54.2867 29.9878 53.9731 30.4111C53.6595 30.8344 53.4997 31.3521 53.5201 31.8786C53.54 32.4134 53.7424 32.9252 54.0935 33.3289C54.4446 33.7325 54.9233 34.0037 55.45 34.0972ZM40.9142 29.5504C39.6656 29.2549 38.6672 29.8027 37.9707 31.2325C36.9712 29.6923 36.1812 29.2244 35.015 29.5094C34.5093 29.6032 34.049 29.8621 33.7059 30.2455C33.3628 30.6289 33.1564 31.1153 33.1189 31.6285C33.0813 32.1418 33.2148 32.653 33.4985 33.0823C33.7821 33.5116 34.1999 33.8348 34.6865 34.0013C34.9967 34.143 35.3378 34.2036 35.6778 34.1772C36.0177 34.1509 36.3454 34.0385 36.6301 33.8506C37.1271 33.4368 37.5852 32.9784 37.9988 32.4812C38.1733 33.0447 38.5484 33.5247 39.0529 33.8301C39.5574 34.1355 40.1564 34.2451 40.7363 34.1382C41.2817 34.0677 41.7845 33.8062 42.1555 33.4C42.5265 32.9939 42.7418 32.4694 42.7631 31.9196C42.7844 31.3698 42.6104 30.8301 42.272 30.3965C41.9335 29.9628 41.4525 29.663 40.9142 29.5504Z" fill="white"/>
<path fill-rule="evenodd" clip-rule="evenodd" d="M138.205 18.7844C138.225 16.5803 138.11 14.377 137.86 12.1868C137.803 11.561 137.69 10.9416 137.521 10.3363C137.448 10.0975 137.319 9.87965 137.145 9.70102C136.881 9.42584 136.598 9.16828 136.3 8.92999C136.25 8.89108 136.199 8.85209 136.149 8.81298C135.581 8.37478 134.996 7.92277 134.192 7.41877C131.189 5.43379 128.082 3.61154 124.883 1.95988C123.65 1.31222 122.664 0.849602 121.727 0.461003C121.331 0.27702 120.921 0.126404 120.5 0.0107222C120.338 -0.00681097 120.013 0.0107222 120.013 0.0107222C120.013 0.0107222 119.717 0.028773 119.575 0.0724046C118.418 0.434088 117.333 0.995647 116.37 1.73166C114.648 3.07451 113.308 4.84633 112.486 6.8698L112.757 6.77111C112.983 6.70447 113.218 6.67122 113.454 6.67242C113.662 6.67349 113.869 6.70253 114.07 6.75877C114.341 6.83279 114.644 6.93148 115.007 7.07335C115.827 7.4126 116.647 7.7827 117.418 8.15279C119.224 9.04102 121.16 10.0588 123.453 11.3726C126.246 12.964 128.514 14.3395 130.653 15.7274C131.652 16.375 132.663 17.0721 133.52 17.6704C134.294 18.213 134.988 18.863 135.579 19.601C136.826 21.2084 137.671 23.0905 138.045 25.0908V24.7067L138.049 24.728C138.222 23.0813 138.246 20.877 138.205 18.7844Z" fill="#F6A033"/>
<path fill-rule="evenodd" clip-rule="evenodd" d="M134.42 21.4701C134.797 21.1011 135.034 20.6128 135.092 20.0884L135.129 20.1316C136.135 21.4568 136.883 22.959 137.336 24.5603C137.735 26.0935 137.778 27.6967 137.463 29.2471L137.482 29.2408C137.444 29.4626 137.411 29.6166 137.331 29.7792C137.281 29.8996 137.212 30.012 137.126 30.1118C136.946 30.3275 136.755 30.5334 136.553 30.7286C136.05 31.1716 135.521 31.5835 134.969 31.9622C133.6 32.9121 132.065 33.8991 130.135 35.0463C127.768 36.4527 125.648 37.6 123.656 38.5869C122.96 38.9385 122.127 39.3333 121.252 39.6725C120.918 39.7995 120.576 39.9045 120.229 39.9871C120.112 40.0011 119.994 40.0011 119.877 39.9871C119.756 40.0009 119.634 40.0009 119.514 39.9871C118.939 39.8332 118.38 39.6267 117.843 39.3703C116.783 38.883 115.71 38.3834 114.317 37.6493C111.512 36.1813 108.99 34.6824 106.524 33.0972C107.213 33.3225 107.918 33.4937 108.633 33.6092C109.326 33.7237 110.027 33.7814 110.729 33.7819H111.056C112.515 33.753 113.953 33.4211 115.278 32.8073C116.733 32.1349 117.855 31.586 118.903 31.037C121.209 29.8404 123.582 28.508 126.017 27.0832C127.725 26.1332 129.92 24.8009 132.04 23.339C132.54 22.9874 133.039 22.6297 133.575 22.2164C133.873 21.9867 134.155 21.7373 134.42 21.4701Z" fill="#F08136"/>
<path d="M137.447 29.4205C137.596 28.7105 137.67 27.987 137.669 27.2616C137.671 26.3483 137.557 25.4384 137.33 24.5538C136.878 22.9523 136.129 21.45 135.123 20.125C135.065 20.6494 134.828 21.1377 134.451 21.5067C134.186 21.7698 133.904 22.015 133.607 22.2407C133.07 22.654 132.571 23.0117 132.071 23.3633C130.752 24.2762 129.39 25.1336 128.145 25.8306C134.537 24.856 136.732 27.5392 137.447 29.4205Z" fill="#ED6E28"/>
<path fill-rule="evenodd" clip-rule="evenodd" d="M110.735 33.2083H110.525L110.562 33.2145C109.348 33.2216 108.139 33.0491 106.975 32.7025C106.488 32.5578 106.015 32.3776 105.557 32.1641L105.545 32.2039C104.374 31.6234 103.523 30.9953 103.047 30.5634C102.716 30.3067 102.485 29.9417 102.394 29.532C102.296 29.1715 102.221 28.8047 102.172 28.4341C102.004 27.3272 101.909 26.2103 101.889 25.0909C101.802 22.747 101.741 20.2057 101.802 17.1215C101.827 15.9496 101.876 14.7776 101.938 13.6488C101.984 12.8636 102.071 12.0813 102.197 11.3049C102.256 10.9595 102.334 10.6177 102.431 10.281C102.5 10.046 102.63 9.8333 102.807 9.66415C103.132 9.32932 103.483 9.02 103.855 8.73891C104.808 8.00899 105.8 7.33154 106.827 6.70956C109.644 4.9146 112.486 3.29236 115.241 1.86133C114.059 2.9117 113.074 4.16505 112.332 5.56227C111.773 6.58701 111.389 7.69831 111.197 8.84994C111.131 9.1582 111.093 9.47216 111.086 9.78751C110.92 11.5948 110.772 13.2541 110.772 14.864V25.9236C110.834 27.3176 110.895 28.4526 110.994 29.5135C111.04 30.17 111.127 30.823 111.253 31.4689C111.306 31.7628 111.402 32.0475 111.536 32.3139C111.647 32.5232 111.786 32.7162 111.95 32.8876C112.041 32.9802 112.142 33.0629 112.252 33.1343H112.054C111.617 33.1962 111.176 33.2209 110.735 33.2083Z" fill="#FDC52C"/>
<path fill-rule="evenodd" clip-rule="evenodd" d="M112.24 33.1259C112.135 33.0564 112.038 32.9765 111.95 32.8874C111.786 32.7161 111.647 32.523 111.537 32.3137C111.402 32.0473 111.306 31.7626 111.253 31.4687C111.127 30.8228 111.041 30.1698 110.994 29.5133C110.896 28.4524 110.834 27.3174 110.772 25.9234V23.8447C109.916 26.2627 107.61 31.2034 103.184 30.6668C104.296 31.631 105.601 32.346 107.012 32.764C108.092 33.0855 109.211 33.2572 110.337 33.2747L110.336 33.2776C110.65 33.2932 111.475 33.2867 112.261 33.136L112.24 33.1259Z" fill="#F9AF1A"/>
<path fill-rule="evenodd" clip-rule="evenodd" d="M116.292 1.76646C115.463 2.39091 114.48 3.30702 113.76 4.45386C113.736 4.49233 113.714 4.52956 113.693 4.56558C113.195 5.29055 112.773 6.0691 112.437 6.88939L112.708 6.7907C112.934 6.72389 113.169 6.69064 113.404 6.69201C113.613 6.69323 113.82 6.72227 114.021 6.77836C114.333 6.86883 114.641 6.97369 114.946 7.09294C115.778 7.41986 116.604 7.80229 117.362 8.17855C118.353 8.65893 119.371 9.19987 120.461 9.77964C120.672 9.8922 120.887 10.0062 121.104 10.1215C116.524 4.79219 118.379 1.412 119.329 0.166016C118.234 0.525764 117.207 1.0657 116.29 1.76359L116.292 1.76646Z" fill="#F28D25"/>
</svg>
