<svg width="34" height="28" viewBox="0 0 34 28" fill="none" xmlns="http://www.w3.org/2000/svg">
<path d="M6.60016 10.6665H28.6668C29.5873 10.6665 30.3335 11.4127 30.3335 12.3332V23.1665C30.3335 23.6267 29.9604 23.9998 29.5002 23.9998H4.50016C4.03993 23.9998 3.66683 23.6267 3.66683 23.1665V4.78317M33.6668 1.49984C33.6668 1.0396 33.2937 0.666504 32.8335 0.666504H28.3485C27.729 0.666504 27.3261 1.31843 27.6032 1.87252L29.7305 6.12716C30.0075 6.68124 29.6046 7.33317 28.9851 7.33317H25.8485C25.5329 7.33317 25.2443 7.15484 25.1032 6.87252L22.2305 1.12716C22.0893 0.844839 21.8008 0.666504 21.4851 0.666504H20.0152C19.3957 0.666504 18.9928 1.31843 19.2698 1.87252L21.3972 6.12716C21.6742 6.68124 21.2713 7.33317 20.6518 7.33317H17.5152C17.1995 7.33317 16.911 7.15484 16.7698 6.87252L13.8972 1.12716C13.756 0.844839 13.4674 0.666504 13.1518 0.666504H11.6819C11.0624 0.666504 10.6595 1.31843 10.9365 1.87252L13.0638 6.12716C13.3409 6.68124 12.938 7.33317 12.3185 7.33317H9.69689C9.0656 7.33317 8.48849 6.9765 8.20617 6.41186L5.56382 1.12716C5.42266 0.844839 5.13411 0.666504 4.81847 0.666504H3.66683C2.78277 0.666504 1.93493 1.01769 1.30981 1.64281C0.684685 2.26794 0.333496 3.11578 0.333496 3.99984V23.9998C0.333496 24.8839 0.684685 25.7317 1.30981 26.3569C1.93493 26.982 2.78277 27.3332 3.66683 27.3332H30.3335C31.2176 27.3332 32.0654 26.982 32.6905 26.3569C33.3156 25.7317 33.6668 24.8839 33.6668 23.9998V1.49984Z" fill="white" fill-opacity="0.5"/>
</svg>
