<svg width="34" height="30" viewBox="0 0 34 30" fill="none" xmlns="http://www.w3.org/2000/svg">
<path d="M17.1668 25.9167C17.0735 26.01 16.9234 26.0135 16.8258 25.9248L16.8168 25.9167C8.90016 18.7333 3.66683 13.9833 3.66683 9.16667C3.66683 5.83333 6.16683 3.33333 9.50016 3.33333C11.5252 3.33333 13.5087 4.37079 14.6895 5.92186C15.2556 6.66549 16.0656 7.26667 17.0002 7.26667C17.9348 7.26667 18.7447 6.66549 19.3108 5.92186C20.4916 4.37079 22.4751 3.33333 24.5002 3.33333C27.8335 3.33333 30.3335 5.83333 30.3335 9.16667C30.3335 13.9833 25.1002 18.7333 17.1668 25.9167ZM24.5002 0C21.9359 0 19.4629 1.05548 17.6688 2.76316C17.2989 3.11519 16.7014 3.11519 16.3316 2.76316C14.5374 1.05548 12.0644 0 9.50016 0C4.36683 0 0.333496 4.01667 0.333496 9.16667C0.333496 15.45 6.00016 20.6 14.5835 28.3833L14.7562 28.5406C16.0281 29.6985 17.9722 29.6985 19.2441 28.5406L19.4168 28.3833C28.0002 20.6 33.6668 15.45 33.6668 9.16667C33.6668 4.01667 29.6335 0 24.5002 0Z" fill="white" fill-opacity="0.5"/>
</svg>
