<svg width="40" height="40" viewBox="0 0 40 40" fill="none" xmlns="http://www.w3.org/2000/svg">
<path d="M15.8333 5C18.7065 5 21.462 6.14137 23.4937 8.17301C25.5253 10.2047 26.6667 12.9602 26.6667 15.8333C26.6667 18.3593 25.7953 20.6932 24.3445 22.5432C24.1914 22.7384 24.2018 23.0185 24.3772 23.1939C24.4665 23.2832 24.5876 23.3333 24.7138 23.3333H25.175C25.5965 23.3333 26.0008 23.5008 26.2988 23.7988L32.9167 30.4167C33.607 31.107 33.607 32.2263 32.9167 32.9167C32.2263 33.607 31.107 33.607 30.4167 32.9167L23.7988 26.2988C23.5008 26.0008 23.3333 25.5965 23.3333 25.175V24.7138C23.3333 24.5876 23.2832 24.4665 23.1939 24.3772C23.0185 24.2018 22.7384 24.1915 22.5432 24.3445C20.6932 25.7953 18.3593 26.6667 15.8333 26.6667C12.9602 26.6667 10.2047 25.5253 8.17301 23.4937C6.14137 21.462 5 18.7065 5 15.8333C5 12.9602 6.14137 10.2047 8.17301 8.17301C10.2047 6.14137 12.9602 5 15.8333 5ZM15.8333 8.33333C11.6667 8.33333 8.33333 11.6667 8.33333 15.8333C8.33333 20 11.6667 23.3333 15.8333 23.3333C20 23.3333 23.3333 20 23.3333 15.8333C23.3333 11.6667 20 8.33333 15.8333 8.33333Z" fill="#fff"/>
</svg>
