<svg width="34" height="34" viewBox="0 0 34 34" fill="none" xmlns="http://www.w3.org/2000/svg">
<path d="M3.66683 8.66683C3.66683 7.74636 2.92064 7.00016 2.00016 7.00016C1.07969 7.00016 0.333496 7.74635 0.333496 8.66683V30.3335C0.333496 32.1668 1.8335 33.6668 3.66683 33.6668H25.3335C26.254 33.6668 27.0002 32.9206 27.0002 32.0002C27.0002 31.0797 26.254 30.3335 25.3335 30.3335H3.66683V8.66683ZM30.3335 3.66683V23.6668H10.3335V3.66683H30.3335ZM30.3335 0.333496H10.3335C8.50016 0.333496 7.00016 1.8335 7.00016 3.66683V23.6668C7.00016 25.5002 8.50016 27.0002 10.3335 27.0002H30.3335C32.1668 27.0002 33.6668 25.5002 33.6668 23.6668V3.66683C33.6668 1.8335 32.1668 0.333496 30.3335 0.333496ZM19.6668 19.1668C18.5681 19.9909 17.0002 19.2069 17.0002 17.8335V9.50016C17.0002 8.12675 18.5681 7.34278 19.6668 8.16683L25.2224 12.3335C26.1113 13.0002 26.1113 14.3335 25.2224 15.0002L19.6668 19.1668Z" fill="white" fill-opacity="0.5"/>
</svg>
