<svg width="30" height="36" viewBox="0 0 30 36" fill="none" xmlns="http://www.w3.org/2000/svg">
<path fill-rule="evenodd" clip-rule="evenodd" d="M0 15.5C0 7.16667 6.66667 0.5 15 0.5C23.2833 0.5 30 7.16667 30 15.5V28.8333C30 29.4601 29.9769 30.0114 29.9317 30.5C29.7626 32.3308 29.2838 33.2804 28.5516 34.0194C28.5463 34.0248 28.5409 34.0302 28.5355 34.0355C27.5979 34.9732 26.3261 35.5 25 35.5H16.6667C15.7462 35.5 15 34.7538 15 33.8333C15 32.9129 15.7462 32.1667 16.6667 32.1667H25C25.4475 32.1667 25.8537 31.9903 26.1531 31.7034C26.1829 31.6748 26.2116 31.6452 26.2392 31.6145C26.5049 31.3193 26.6667 30.9285 26.6667 30.5V28.8333H21.6667C19.8257 28.8333 18.3333 27.341 18.3333 25.5V18.8333C18.3333 16.9924 19.8257 15.5 21.6667 15.5H26.6667C26.6667 14.3609 26.5001 13.2389 26.1804 12.1667C25.6317 10.3265 24.632 8.63285 23.2496 7.25042C21.0617 5.0625 18.0942 3.83333 15 3.83333C11.9058 3.83333 8.93834 5.0625 6.75042 7.25042C5.36799 8.63285 4.36833 10.3265 3.81964 12.1667C3.49993 13.2389 3.33333 14.3609 3.33333 15.5H8.33333C10.1743 15.5 11.6667 16.9924 11.6667 18.8333V25.5C11.6667 27.341 10.1743 28.8333 8.33333 28.8333H5C3.67392 28.8333 2.40215 28.3065 1.46447 27.3689C0.526784 26.4312 0 25.1594 0 23.8333V15.5ZM3.33333 18.8333V23.8333C3.33333 24.2754 3.50893 24.6993 3.82149 25.0118C4.13405 25.3244 4.55797 25.5 5 25.5H8.33333V18.8333H3.33333ZM26.6667 18.8333H21.6667V25.5H26.6667V18.8333Z" fill="white" fill-opacity="0.5"/>
</svg>
