<svg width="352" height="288" viewBox="0 0 352 288" fill="none" xmlns="http://www.w3.org/2000/svg">
<path d="M197.919 158.442C203.989 146.921 208.15 135.064 210.929 122.704C213.717 110.344 212.9 98.204 208.748 86.2842C208.276 84.9213 208.528 84.1665 209.566 83.1811C217.785 75.3394 224.935 66.7115 228.677 55.7562C230.03 51.8039 230.921 47.7573 230.323 43.5114C230.061 41.6978 229.453 40.1357 227.514 39.5906C225.501 39.0245 223.781 39.7374 222.492 41.2365C221.716 42.1381 221.213 43.3018 220.72 44.4025C216.873 52.999 212.145 60.9875 204.492 66.7953C202.311 68.4517 199.858 69.7307 197.415 70.9992C209.419 62.56 209.272 47.8831 202.122 39.4648C194.889 30.9312 182.026 29.6732 173.104 36.76C165.084 43.134 161.268 56.9513 171.668 68.1582C171.542 68.305 171.416 68.4412 171.29 68.588C167.894 65.4954 164.193 62.6648 161.163 59.2472C156.844 54.3828 152.944 49.1411 148.992 43.9622C147.073 41.4462 144.274 40.943 141.758 42.9873C139.012 45.2202 138.236 49.1725 139.861 53.0095C142.125 58.3666 145.564 62.9584 149.485 67.1727C153.489 71.4815 157.83 75.4862 161.646 79.9417C165.776 84.7536 168.177 90.3728 167.38 96.9564C166.877 101.139 164.591 104.526 161.992 107.545C158.113 112.042 153.814 116.162 149.694 120.46C147.807 122.431 145.878 124.35 144.117 126.426C143.153 127.558 142.345 128.879 141.758 130.242C138.802 136.993 142.838 142.549 150.103 141.49C153.982 140.924 157.83 139.939 161.572 138.786C165.881 137.465 170.043 135.693 174.31 134.225C175.788 133.712 177.35 133.355 178.912 133.198C182.602 132.842 185.202 134.76 185.38 138.45C185.506 141.176 185.234 144.111 184.29 146.638C182.644 151.041 180.411 155.234 178.251 159.438C177.989 159.941 176.689 160.172 175.903 160.109C162.086 158.998 149.369 154.647 138.225 146.376C117.017 130.64 106.544 109.39 107.173 83.0238C107.991 48.2395 134.598 18.0679 168.932 12.4697C209.052 5.91752 246.342 31.0885 254.456 70.821C259.509 95.5412 253.198 117.619 236.246 136.385C226.172 147.539 213.602 154.7 198.998 158.275C198.726 158.337 198.443 158.358 197.919 158.442Z" fill="#F6851F"/>
<path d="M169.906 5.08924L154.097 0.895834C139.913 -2.86775 125.372 5.57149 121.609 19.7557L117.656 34.6528C130.383 18.8856 148.866 7.97221 169.906 5.08924Z" fill="#fff"/>
<path d="M100.631 98.7491L96.763 113.321C92.9994 127.505 101.439 142.046 115.623 145.81L130.761 149.825C115.004 137.444 103.934 119.402 100.631 98.7491Z" fill="#fff"/>
<path d="M247.673 25.7418L230.753 21.2444C247.568 34.2125 259.153 53.5965 261.879 75.7272L266.523 58.2302C270.286 44.0565 261.847 29.5054 247.673 25.7418Z" fill="#fff"/>
<path d="M192.991 166.357L209.178 170.655C223.362 174.419 237.903 165.98 241.666 151.796L246.227 134.634C233.636 151.418 214.703 163.17 192.991 166.357Z" fill="#fff"/>
<path fillRule="evenodd" clipRule="evenodd" d="M172.304 230.186H196.763L205.779 240.006H172.304V230.186ZM223.597 265.182H180.423C167.783 265.182 162.861 260.952 162.878 250.09V247.68L172.304 240.014V246.022C172.304 252.449 175.039 255.85 180.226 255.85H220.708C220.818 255.85 220.933 255.851 221.054 255.851C223.875 255.866 229.588 255.895 229.588 248.765V240.775L238.98 231.579V251.398C238.98 259.123 232.22 265.182 223.597 265.182ZM308.219 255.859C311.979 255.859 313.885 253.209 313.885 247.988V241.142L323.457 232.024V250.945C323.457 254.884 322.414 258.166 320.363 260.696C318.013 263.678 314.671 265.182 310.433 265.182H293.366C285.213 265.182 281.248 261.217 281.248 253.064V226.99L290.82 217.872V255.859H308.219ZM301.391 282.095H306.997C309.125 282.095 310.458 283.753 310.894 284.402L307.382 288L301.391 282.095ZM283.256 270.395C288.298 270.387 310.578 270.37 310.826 270.37C315.073 270.37 318.414 271.874 320.756 274.848C320.765 274.857 320.774 274.866 320.781 274.876C320.794 274.892 320.805 274.908 320.816 274.925L312.697 282.701C311.355 280.813 309.407 279.702 307.39 279.702H292.973L283.256 270.395ZM254.021 265.182H244.449V227.871L254.021 218.658V265.182ZM256.413 270.344C262.926 270.071 266.498 266.25 266.498 259.516V241.048L276.103 231.887V258.627C276.103 278.394 264.729 279.736 262.567 279.813L256.413 270.344ZM313.885 217.137C314.039 213.872 317.483 203.267 332.943 203.267H351.752L342.104 213.12H332.071C325.157 213.12 323.534 217.145 323.414 223.273L313.885 217.137ZM338.13 265.182H328.559V227.161L338.13 218.043V265.182ZM18.79 224.143V224.144V224.144C18.7914 224.859 18.7928 225.582 18.7928 226.315C19.0159 226.285 19.1949 226.268 19.3446 226.254C19.5733 226.232 19.7335 226.217 19.8782 226.17C22.4368 225.233 24.9838 224.289 27.5336 223.345L27.5338 223.345L29.1591 222.743C30.5842 222.214 32.0103 221.685 33.4366 221.157L33.441 221.156C38.2057 219.391 42.9734 217.625 47.7209 215.804C48.2422 215.599 48.8234 214.77 48.8576 214.197C48.966 212.238 48.9399 210.272 48.9137 208.306V208.306V208.306C48.909 207.948 48.9042 207.59 48.9003 207.232C48.9003 206.929 48.8375 206.625 48.7702 206.3C48.7351 206.131 48.6988 205.955 48.6695 205.771C47.4398 206.228 46.226 206.682 45.0227 207.133C42.1783 208.197 39.3925 209.24 36.5941 210.249C33.7739 211.27 30.9495 212.276 28.125 213.283C25.3006 214.289 22.4761 215.295 19.656 216.317C19.3056 216.445 18.8355 216.923 18.827 217.248C18.7811 219.522 18.7855 221.791 18.79 224.143ZM9.56882 256.037C6.38242 256.037 3.19575 256.038 0.00854535 256.038V256.039C0.00854535 259.175 0.00854535 262.311 0 265.447C3.13626 265.441 6.27301 265.438 9.41002 265.434C19.3429 265.424 29.2784 265.414 39.2089 265.31C41.4651 265.285 43.8067 264.789 45.9602 264.071C51.9851 262.054 54.2926 253.107 50.2076 247.894C49.826 247.408 49.4447 246.921 49.0634 246.435L49.0633 246.435L49.0633 246.435C46.3868 243.02 43.7071 239.602 40.9096 236.288C38.7075 233.683 36.4148 231.155 34.123 228.629L34.123 228.629L34.1228 228.629L34.1227 228.629L34.1225 228.628L34.1224 228.628C33.1146 227.517 32.107 226.407 31.1073 225.29C30.586 224.708 30.0049 224.102 29.2358 224.854C27.3727 226.683 25.5097 228.528 23.7493 230.46C23.4843 230.75 23.5356 231.725 23.8176 232.041C25.4883 233.882 27.2105 235.682 28.9323 237.481L28.9327 237.481C29.5359 238.111 30.139 238.741 30.7399 239.373L32.162 240.87L32.1624 240.871L32.1628 240.871L32.1632 240.872L32.1636 240.872C35.0813 243.943 37.9964 247.011 40.8925 250.098C42.1915 251.483 42.0804 253.115 41.4138 254.688C40.8412 256.038 39.5508 256.046 38.2518 256.046C28.6884 256.034 19.1298 256.035 9.56882 256.037ZM123.126 266.609C123.192 266.233 123.259 265.85 123.327 265.456C123.602 265.456 123.876 265.458 124.147 265.46H124.148H124.148C124.415 265.462 124.679 265.464 124.942 265.464C126.285 265.454 127.63 265.46 128.975 265.466C132.114 265.48 135.256 265.493 138.385 265.302C140.897 265.148 143.461 264.576 145.845 263.738C150.435 262.131 152.682 254.944 150.913 251.073C149.768 248.569 148.486 246.005 146.726 243.92C142.868 239.344 138.878 234.883 134.888 230.423C133.319 228.668 131.75 226.914 130.189 225.153C129.523 224.401 128.984 224.298 128.224 225.119C126.668 226.802 125.062 228.452 123.369 229.99C122.352 230.913 122.455 231.503 123.369 232.443C128.548 237.775 133.684 243.134 138.761 248.56C139.709 249.569 140.581 250.834 140.974 252.141C141.461 253.773 140.393 255.995 138.855 256.004C135.162 256.022 131.47 256.019 127.734 256.015H127.731H127.727H127.724H127.72C126.221 256.014 124.715 256.013 123.199 256.013C123.183 255.635 123.174 255.273 123.164 254.921V254.92C123.144 254.123 123.125 253.38 123.036 252.645C122.898 251.553 122.783 250.455 122.668 249.356V249.356C122.376 246.568 122.083 243.777 121.421 241.074C120.207 236.143 117.08 232.571 111.849 231.699C108.799 231.186 105.611 231.135 102.526 231.375C98.2443 231.708 95.2703 234.152 93.4927 238.1C91.9801 241.459 91.5357 245.04 91.6211 248.62C91.681 251.09 92.1424 253.628 92.8859 255.995C94.4499 260.952 98.5519 263.089 103.184 264.362C104.338 264.678 105.551 264.704 106.542 263.524C107.405 262.496 108.391 261.563 109.373 260.632C109.714 260.31 110.054 259.987 110.388 259.662C111.007 259.054 111.646 258.462 112.37 257.789C112.726 257.459 113.102 257.11 113.507 256.73C113.507 257.707 113.504 258.625 113.501 259.504V259.505V259.506V259.506V259.507C113.496 261.158 113.491 262.672 113.507 264.182C113.576 270.857 109.021 276.155 102.449 277.044C101.576 277.166 100.704 277.294 99.7864 277.429L99.7863 277.429C99.2214 277.512 98.6397 277.597 98.0306 277.685C98.4346 278.275 98.832 278.857 99.2253 279.434C100.679 281.565 102.075 283.611 103.534 285.616C103.799 285.992 104.577 286.24 105.064 286.171C108.38 285.693 111.482 284.599 114.208 282.591C118.712 279.275 121.857 275.087 122.669 269.396C122.798 268.481 122.957 267.57 123.126 266.61L123.126 266.609ZM113.574 253.257L113.574 253.261C113.571 254.241 113.567 255.256 113.567 256.32C112.641 256.209 111.735 256.128 110.848 256.049L110.848 256.049L110.848 256.049L110.848 256.049L110.848 256.049C108.95 255.881 107.138 255.72 105.397 255.278C101.62 254.329 100.612 250.347 101.133 246.68L101.158 246.504C101.321 245.367 101.492 244.167 101.996 243.168C103.603 239.972 107.782 239.109 110.568 241.322C112.465 242.826 113.524 244.826 113.559 247.27C113.588 249.21 113.581 251.155 113.574 253.257ZM52.2827 264.66L52.2828 264.66C52.4579 264.326 52.5968 264.061 52.797 263.849C54.1829 262.361 55.58 260.884 56.976 259.409C57.6805 258.664 58.3846 257.92 59.0869 257.175C59.8645 256.346 60.7533 255.995 61.9412 256.012C64.3359 256.047 66.7306 256.044 69.1253 256.041H69.126C71.3801 256.038 73.6342 256.035 75.8882 256.064C77.5291 256.081 79.0332 255.679 79.6399 254.175C80.2381 252.688 79.4946 251.295 78.3837 250.124C76.6379 248.3 74.9036 246.464 73.1693 244.628L73.1685 244.628L73.1674 244.626C70.9375 242.266 68.7077 239.906 66.4535 237.57C65.6502 236.741 65.5476 236.228 66.4193 235.348C67.6416 234.111 68.7455 232.762 69.8464 231.416C70.0001 231.228 70.1538 231.04 70.3077 230.853C70.9487 230.075 71.4016 229.862 72.2135 230.742C74.2015 232.888 76.2105 235.014 78.2191 237.139L78.2193 237.139L78.2199 237.14L78.2201 237.14L78.2203 237.14C80.6494 239.711 83.0781 242.28 85.4683 244.885C88.3483 248.03 89.4251 251.893 88.7585 256.038C88.1944 259.55 86.0665 262.276 82.8019 263.729C80.8449 264.592 78.6315 265.25 76.5206 265.302C70.8577 265.432 65.1858 265.409 59.5147 265.387H59.5146H59.5145H59.5144H59.5141H59.5138H59.5135C57.3456 265.379 55.1778 265.37 53.0107 265.37C52.8953 265.36 52.7771 265.34 52.5878 265.307L52.5875 265.307L52.5873 265.307L52.5871 265.307L52.5868 265.307L52.5862 265.307C52.4393 265.282 52.2495 265.249 51.9852 265.208C52.1009 265.007 52.1961 264.825 52.2826 264.661L52.2827 264.66ZM118.008 224.14L118.008 224.133C118.004 221.763 117.999 219.454 118.045 217.145C118.054 216.863 118.507 216.444 118.84 216.325C122.276 215.071 125.716 213.837 129.156 212.602C131.32 211.825 133.485 211.048 135.65 210.266C138.42 209.266 141.186 208.25 144.004 207.215L144.004 207.215C145.281 206.746 146.568 206.273 147.871 205.796C147.905 205.938 147.95 206.076 147.994 206.212L147.994 206.212C148.079 206.476 148.161 206.73 148.161 206.984C148.165 207.317 148.169 207.649 148.173 207.982C148.198 210.085 148.223 212.186 148.127 214.274C148.101 214.804 147.537 215.581 147.042 215.778C142.573 217.48 138.086 219.137 133.598 220.795C131.889 221.426 130.18 222.058 128.471 222.692C127.776 222.95 127.08 223.208 126.384 223.466L126.382 223.467C124.036 224.339 121.688 225.211 119.336 226.067C119.105 226.152 118.864 226.184 118.555 226.226C118.395 226.247 118.216 226.271 118.011 226.306C118.011 225.578 118.01 224.856 118.008 224.14Z" fill="#fff"/>
</svg>
