<svg width="696" height="195" viewBox="0 0 696 195" fill="none" xmlns="http://www.w3.org/2000/svg">
<path fillRule="evenodd" clipRule="evenodd" d="M239.733 75.7943H273.763L286.307 89.4563H239.733V75.7943ZM311.098 124.485H251.028C233.443 124.485 226.594 118.599 226.618 103.487V100.134L239.733 89.4682V97.8271C239.733 106.769 243.538 111.501 250.755 111.501H307.079C307.232 111.501 307.393 111.502 307.561 111.503C311.485 111.523 319.433 111.563 319.433 101.644V90.5264L332.501 77.7325V105.306C332.501 116.055 323.096 124.485 311.098 124.485ZM428.836 111.513C434.068 111.513 436.72 107.827 436.72 100.562V91.0377L450.037 78.3508V104.676C450.037 110.157 448.586 114.723 445.732 118.243C442.463 122.392 437.813 124.485 431.916 124.485H408.171C396.828 124.485 391.31 118.968 391.31 107.625V71.3474L404.628 58.6604V111.513H428.836ZM419.336 148.016H427.136C430.097 148.016 431.952 150.323 432.558 151.227L427.671 156.232L419.336 148.016ZM394.105 131.738C401.12 131.726 432.118 131.703 432.463 131.703C438.372 131.703 443.021 133.795 446.279 137.933C446.3 137.954 446.317 137.975 446.332 137.996C446.343 138.011 446.353 138.025 446.363 138.04L435.067 148.86C433.2 146.233 430.489 144.687 427.683 144.687H407.624L394.105 131.738ZM353.428 124.485H340.111V72.5721L353.428 59.7543V124.485ZM356.757 131.667C365.818 131.286 370.788 125.971 370.788 116.602V90.9069L384.152 78.1605V115.365C384.152 142.868 368.326 144.734 365.318 144.841L356.757 131.667ZM436.72 57.6378C436.934 53.0957 441.725 38.3398 463.235 38.3398H489.406L475.981 52.0494H462.022C452.403 52.0494 450.144 57.6497 449.977 66.1751L436.72 57.6378ZM470.452 124.485H457.135V71.5852L470.452 58.8982V124.485ZM26.1432 67.3854C26.1451 68.381 26.1471 69.3873 26.1471 70.4079C26.4575 70.3656 26.7065 70.3418 26.9147 70.322C27.2329 70.2917 27.4559 70.2704 27.6571 70.2057C31.2169 68.9015 34.7605 67.5891 38.3079 66.2754L38.3081 66.2753L38.3083 66.2752L40.57 65.4377C42.555 64.7002 44.5412 63.9646 46.5278 63.2289L46.5281 63.2288L46.5284 63.2286C53.1574 60.7736 59.7907 58.3169 66.3958 55.7828C67.1211 55.4974 67.9297 54.3441 67.9772 53.5474C68.1281 50.8212 68.0918 48.0865 68.0554 45.3504V45.3503V45.3502C68.0488 44.8524 68.0422 44.3546 68.0367 43.8568C68.0367 43.4348 67.9493 43.0127 67.8557 42.5603C67.8069 42.3244 67.7564 42.0803 67.7156 41.8236C66.0047 42.4599 64.3158 43.092 62.6415 43.7186C58.6842 45.1997 54.8082 46.6504 50.9146 48.0541C46.9911 49.4749 43.0617 50.8749 39.1322 52.2748L39.132 52.2749L39.1313 52.2752C35.2016 53.6752 31.2718 55.0753 27.348 56.4962C26.8605 56.6746 26.2065 57.3404 26.1946 57.7923C26.1308 60.9559 26.1369 64.1125 26.1432 67.3854ZM13.3164 111.761L13.1831 111.761C8.79321 111.762 4.40292 111.763 0.0118895 111.763V111.764C0.0118895 116.127 0.0118895 120.49 0 124.854C4.35566 124.845 8.71201 124.841 13.0687 124.836L13.0918 124.836H13.093C26.9128 124.822 40.7362 124.808 54.5528 124.664C57.6918 124.628 60.9498 123.938 63.9461 122.94C72.3288 120.133 75.5392 107.684 69.8556 100.431C69.3248 99.755 68.7943 99.0783 68.2637 98.4014C64.5398 93.6509 60.8113 88.8946 56.9189 84.2841C53.8552 80.6588 50.6653 77.1425 47.4766 73.6275L47.4765 73.6274C46.0741 72.0815 44.6719 70.5358 43.2808 68.9813C42.5554 68.1727 41.7469 67.3285 40.6768 68.3749C38.0847 70.9194 35.4926 73.4877 33.0432 76.1749C32.6746 76.5792 32.7459 77.9347 33.1383 78.3746C35.4629 80.937 37.8593 83.4407 40.255 85.9436L40.255 85.9437C41.0943 86.8206 41.9335 87.6973 42.7695 88.5765C43.4189 89.2603 44.0683 89.9438 44.7176 90.6273L44.7276 90.6378L44.7377 90.6484L44.7478 90.6591L44.748 90.6592L44.7481 90.6593L44.7482 90.6594L44.7483 90.6596C48.8085 94.9331 52.865 99.2028 56.8952 103.499C58.7025 105.425 58.5479 107.696 57.6205 109.884C56.8238 111.763 55.0284 111.775 53.2211 111.775C39.9176 111.757 26.6209 111.759 13.3209 111.761H13.3198H13.3186H13.3175H13.3164ZM171.31 126.47C171.402 125.947 171.496 125.414 171.589 124.866C171.973 124.866 172.353 124.869 172.731 124.872C173.102 124.875 173.471 124.878 173.837 124.878C175.705 124.863 177.575 124.871 179.446 124.88H179.447H179.447H179.448H179.448C183.816 124.899 188.187 124.918 192.54 124.652C196.036 124.438 199.603 123.641 202.92 122.476C209.306 120.24 212.433 110.241 209.971 104.854C208.378 101.37 206.595 97.8033 204.145 94.902C198.777 88.5356 193.225 82.3284 187.675 76.1223C185.492 73.6815 183.309 71.241 181.137 68.7909C180.21 67.7446 179.461 67.6019 178.403 68.7433C176.239 71.0857 174.003 73.3806 171.649 75.5208C170.234 76.805 170.377 77.6254 171.649 78.9333C178.854 86.3529 186 93.8081 193.063 101.358C194.383 102.762 195.596 104.521 196.143 106.341C196.821 108.612 195.334 111.703 193.194 111.715C188.057 111.74 182.919 111.736 177.722 111.731C175.629 111.729 173.527 111.727 171.411 111.727C171.389 111.204 171.376 110.701 171.364 110.212L171.364 110.211L171.364 110.21L171.364 110.208L171.364 110.207C171.335 109.098 171.309 108.064 171.185 107.042C170.994 105.523 170.833 103.996 170.673 102.468L170.673 102.467L170.673 102.465C170.266 98.5867 169.859 94.7035 168.938 90.9426C167.249 84.0818 162.898 79.1117 155.621 77.8989C151.376 77.1855 146.941 77.1141 142.648 77.4471C136.691 77.9108 132.554 81.3114 130.08 86.8047C127.976 91.4776 127.357 96.4597 127.476 101.442C127.56 104.878 128.202 108.409 129.236 111.703C131.412 118.599 137.119 121.572 143.564 123.344C145.169 123.784 146.858 123.819 148.237 122.178C149.437 120.748 150.809 119.449 152.175 118.155L152.175 118.155L152.175 118.154L152.175 118.154L152.175 118.154C152.649 117.705 153.122 117.257 153.587 116.804C154.449 115.958 155.337 115.134 156.346 114.199L156.346 114.198L156.35 114.195L156.357 114.188C156.848 113.733 157.368 113.25 157.927 112.726C157.927 114.083 157.923 115.358 157.919 116.58V116.581V116.582V116.584V116.585C157.911 118.883 157.904 120.991 157.927 123.094C158.023 132.38 151.685 139.752 142.541 140.989C141.327 141.158 140.113 141.336 138.837 141.524L138.836 141.524C138.05 141.639 137.241 141.758 136.394 141.881C136.955 142.699 137.507 143.508 138.053 144.309L138.056 144.313L138.056 144.314C140.078 147.279 142.021 150.126 144.051 152.915C144.42 153.438 145.502 153.783 146.18 153.688C150.793 153.022 155.109 151.5 158.902 148.706C165.169 144.092 169.544 138.266 170.674 130.347C170.853 129.074 171.076 127.806 171.31 126.47ZM158.02 107.894V107.897V107.901V107.904V107.908C158.016 109.269 158.011 110.677 158.011 112.155C156.722 112 155.462 111.888 154.227 111.778L154.227 111.778L154.227 111.778C151.587 111.544 149.066 111.32 146.644 110.704C141.388 109.384 139.985 103.844 140.71 98.7426L140.746 98.4967C140.972 96.9154 141.21 95.2459 141.911 93.8557C144.147 89.4087 149.961 88.2078 153.837 91.2874C156.477 93.3801 157.951 96.1624 157.999 99.563C158.039 102.263 158.03 104.968 158.02 107.894ZM72.3287 124.521C72.4898 124.242 72.6224 123.988 72.7427 123.759C72.9864 123.294 73.1797 122.925 73.4583 122.63C75.3865 120.56 77.3305 118.505 79.2728 116.452C80.2529 115.416 81.2325 114.381 82.2095 113.344C83.2915 112.19 84.5281 111.703 86.1809 111.727C89.5131 111.776 92.8453 111.771 96.1775 111.766C99.3136 111.762 102.45 111.758 105.586 111.798C107.869 111.822 109.962 111.263 110.806 109.17C111.638 107.101 110.604 105.163 109.058 103.534C106.629 100.997 104.217 98.4431 101.804 95.8896L101.804 95.8895L101.803 95.8885L101.802 95.8866L101.801 95.8855C98.698 92.6015 95.5954 89.3175 92.459 86.0674C91.3413 84.914 91.1986 84.2006 92.4114 82.9759C94.1121 81.2544 95.648 79.3772 97.1797 77.505C97.3936 77.2437 97.6074 76.9824 97.8215 76.7216C98.7133 75.6396 99.3435 75.3423 100.473 76.567C103.239 79.5535 106.034 82.5108 108.829 85.4674L108.829 85.4681L108.83 85.469L108.83 85.4694L108.83 85.4695C112.21 89.0454 115.589 92.6205 118.915 96.2455C122.922 100.621 124.42 105.996 123.493 111.762C122.708 116.649 119.747 120.442 115.205 122.464C112.482 123.665 109.403 124.58 106.466 124.651C98.5866 124.832 90.695 124.801 82.8045 124.77H82.804H82.8035H82.8031C79.7868 124.758 76.7707 124.747 73.7555 124.747C73.5948 124.733 73.4303 124.705 73.1664 124.659L73.1662 124.659C72.9616 124.624 72.6973 124.578 72.3287 124.521ZM164.19 67.3723V67.372V67.3703C164.184 64.0728 164.178 60.8613 164.241 57.6498C164.253 57.2574 164.883 56.6748 165.347 56.5083C170.128 54.7641 174.912 53.0467 179.699 51.3286L179.7 51.3281L179.708 51.3254C182.717 50.2455 185.726 49.1654 188.735 48.0781C192.589 46.6872 196.437 45.2737 200.357 43.8338L200.359 43.8334C202.135 43.181 203.926 42.5231 205.739 41.8595C205.787 42.057 205.849 42.2491 205.91 42.4375L205.91 42.4378C206.029 42.8051 206.143 43.1586 206.143 43.5122C206.148 43.975 206.153 44.4379 206.159 44.9006V44.9013C206.194 47.8266 206.229 50.7495 206.095 53.6547C206.06 54.3919 205.275 55.4739 204.585 55.7474C198.368 58.1156 192.125 60.4214 185.88 62.7281C183.503 63.6063 181.125 64.4847 178.748 65.3666C177.779 65.7257 176.811 66.0855 175.842 66.4453L175.84 66.4461C172.575 67.6585 169.31 68.8715 166.037 70.0633C165.716 70.1806 165.38 70.2259 164.951 70.2838C164.727 70.3139 164.479 70.3474 164.194 70.3962C164.194 69.3788 164.192 68.3716 164.19 67.3723Z" fill="#737373"/>
<path d="M616.453 179.704C623.337 166.636 628.058 153.188 631.209 139.17C634.372 125.151 633.444 111.382 628.736 97.8625C628.201 96.3168 628.486 95.4607 629.663 94.343C638.985 85.4491 647.094 75.6633 651.339 63.2379C652.873 58.7553 653.884 54.1656 653.206 49.35C652.909 47.293 652.219 45.5214 650.019 44.9031C647.736 44.261 645.786 45.0695 644.324 46.7698C643.444 47.7924 642.873 49.1122 642.314 50.3607C637.951 60.1108 632.588 69.1712 623.908 75.7584C621.435 77.6371 618.653 79.0877 615.882 80.5265C629.497 70.9547 629.33 54.3083 621.221 44.7604C613.017 35.0817 598.427 33.6548 588.309 41.6927C579.212 48.922 574.884 64.5934 586.68 77.3042C586.537 77.4706 586.394 77.6252 586.251 77.7917C582.399 74.284 578.202 71.0737 574.765 67.1974C569.867 61.6803 565.443 55.7351 560.961 49.8613C558.785 47.0076 555.61 46.4369 552.756 48.7555C549.641 51.2882 548.761 55.7708 550.604 60.1227C553.173 66.1986 557.073 71.4066 561.52 76.1865C566.062 81.0734 570.984 85.6155 575.312 90.6689C579.997 96.1266 582.72 102.5 581.816 109.967C581.246 114.711 578.654 118.552 575.705 121.976C571.305 127.077 566.43 131.75 561.757 136.625C559.617 138.86 557.429 141.036 555.432 143.391C554.338 144.675 553.422 146.173 552.756 147.719C549.403 155.376 553.981 161.678 562.221 160.477C566.621 159.835 570.984 158.717 575.229 157.409C580.116 155.911 584.837 153.902 589.676 152.237C591.352 151.654 593.124 151.25 594.896 151.072C599.081 150.667 602.03 152.843 602.232 157.029C602.375 160.12 602.066 163.45 600.995 166.315C599.129 171.309 596.596 176.065 594.147 180.833C593.849 181.404 592.375 181.665 591.483 181.594C575.812 180.334 561.389 175.399 548.749 166.018C524.695 148.17 512.817 124.069 513.53 94.1646C514.458 54.7126 544.635 20.4922 583.576 14.1428C629.08 6.71137 671.374 35.26 680.577 80.3243C686.309 108.362 679.151 133.403 659.924 154.686C648.497 167.338 634.241 175.459 617.678 179.513C617.368 179.585 617.047 179.608 616.453 179.704Z" fill="#737373"/>
<path d="M584.683 5.77217L566.753 1.01605C550.665 -3.25258 534.173 6.31913 529.905 22.4067L525.422 39.3029C539.857 21.4198 560.819 9.04201 584.683 5.77217Z" fill="#737373"/>
<path d="M506.112 112L501.724 128.528C497.455 144.616 507.027 161.108 523.115 165.376L540.284 169.93C522.413 155.888 509.857 135.424 506.112 112Z" fill="#737373"/>
<path d="M672.884 29.1962L653.693 24.0952C672.765 38.8035 685.904 60.7887 688.996 85.8892L694.263 66.0443C698.532 49.9685 688.96 33.4648 672.884 29.1962Z" fill="#737373"/>
<path d="M610.865 188.681L629.224 193.556C645.311 197.825 661.803 188.253 666.072 172.165L671.244 152.701C656.964 171.737 635.49 185.066 610.865 188.681Z" fill="#737373"/>
</svg>
