<svg xmlns="http://www.w3.org/2000/svg" width="173" height="172" viewBox="0 0 173 172" fill="none">
  <path d="M102.919 158.442C108.989 146.921 113.15 135.064 115.929 122.704C118.717 110.344 117.9 98.204 113.748 86.2842C113.276 84.9213 113.528 84.1665 114.566 83.1811C122.785 75.3394 129.935 66.7115 133.677 55.7562C135.03 51.8039 135.921 47.7573 135.323 43.5114C135.061 41.6978 134.453 40.1357 132.514 39.5906C130.501 39.0245 128.781 39.7374 127.492 41.2365C126.716 42.1381 126.213 43.3018 125.72 44.4025C121.873 52.999 117.145 60.9875 109.492 66.7953C107.311 68.4517 104.858 69.7307 102.415 70.9992C114.419 62.56 114.272 47.8831 107.122 39.4648C99.8889 30.9312 87.0256 29.6732 78.1041 36.76C70.0842 43.134 66.2682 56.9513 76.6678 68.1582C76.542 68.305 76.4162 68.4412 76.2904 68.588C72.8938 65.4954 69.1931 62.6648 66.1634 59.2472C61.8442 54.3828 57.9443 49.1411 53.992 43.9622C52.0735 41.4462 49.2744 40.943 46.7584 42.9873C44.0117 45.2202 43.2359 49.1725 44.8608 53.0095C47.1253 58.3666 50.5639 62.9584 54.4847 67.1727C58.4894 71.4815 62.8296 75.4862 66.6456 79.9417C70.7761 84.7536 73.1768 90.3728 72.3801 96.9564C71.8769 101.139 69.5915 104.526 66.9915 107.545C63.1126 112.042 58.8144 116.162 54.6944 120.46C52.8074 122.431 50.8784 124.35 49.1171 126.426C48.1527 127.558 47.3454 128.879 46.7584 130.242C43.802 136.993 47.8381 142.549 55.1032 141.49C58.9821 140.924 62.8296 139.939 66.5722 138.786C70.8809 137.465 75.0429 135.693 79.3097 134.225C80.7879 133.712 82.3499 133.355 83.912 133.198C87.6022 132.842 90.2021 134.76 90.3803 138.45C90.5061 141.176 90.2335 144.111 89.29 146.638C87.6441 151.041 85.4111 155.234 83.2515 159.438C82.9894 159.941 81.6895 160.172 80.9032 160.109C67.0859 158.998 54.3694 154.647 43.2254 146.376C22.0172 130.64 11.5442 109.39 12.1732 83.0238C12.9909 48.2395 39.5981 18.0679 73.9316 12.4697C114.052 5.91752 151.342 31.0885 159.456 70.821C164.509 95.5412 158.198 117.619 141.246 136.385C131.172 147.539 118.602 154.7 103.998 158.275C103.726 158.337 103.443 158.358 102.919 158.442Z" fill="#F6851F"/>
  <path d="M74.9061 5.08924L59.097 0.895834C44.9127 -2.86775 30.3721 5.57149 26.6085 19.7557L22.6562 34.6528C35.3832 18.8856 53.8657 7.97221 74.9061 5.08924Z" fill="#fff"/>
  <path d="M5.63144 98.7491L1.76302 113.321C-2.00056 127.505 6.43869 142.046 20.6229 145.81L35.7611 149.825C20.0044 137.444 8.93375 119.402 5.63144 98.7491Z" fill="#fff"/>
  <path d="M152.673 25.7418L135.753 21.2444C152.568 34.2125 164.153 53.5965 166.879 75.7272L171.523 58.2302C175.286 44.0565 166.847 29.5054 152.673 25.7418Z" fill="#fff"/>
  <path d="M97.9912 166.357L114.178 170.655C128.362 174.419 142.903 165.98 146.666 151.796L151.227 134.634C138.636 151.418 119.703 163.17 97.9912 166.357Z" fill="#fff"/>
</svg>