<svg width="24" height="24" viewBox="0 0 24 24" fill="none" xmlns="http://www.w3.org/2000/svg">
<path fillRule="evenodd" clipRule="evenodd" d="M8 9C7.44772 9 7 8.55228 7 8V7H5V11H19V7H17V8C17 8.55228 16.5523 9 16 9C15.4477 9 15 8.55228 15 8V7H9V8C9 8.55228 8.55228 9 8 9ZM15 5H9V4C9 3.44772 8.55229 3 8 3C7.44772 3 7 3.44772 7 4V5H5C3.89543 5 3 5.89543 3 7V18C3 19.1046 3.89543 20 5 20H19C20.1046 20 21 19.1046 21 18V7C21 5.89543 20.1046 5 19 5H17V4C17 3.44772 16.5523 3 16 3C15.4477 3 15 3.44772 15 4V5ZM5 13V18H19V13H5Z" fill="white" fill-opacity="0.5"/>
</svg>
