<svg width="38" height="40" viewBox="0 0 38 40" fill="none" xmlns="http://www.w3.org/2000/svg">
<path fill-rule="evenodd" clip-rule="evenodd" d="M37.2055 18.7844C37.2254 16.5803 37.1102 14.377 36.8605 12.1868C36.8036 11.561 36.6902 10.9416 36.5215 10.3363C36.4487 10.0975 36.3197 9.87965 36.1454 9.70102C35.881 9.42584 35.5989 9.16828 35.3008 8.92999C35.2503 8.89108 35.1998 8.85209 35.1492 8.81298C34.5816 8.37478 33.9962 7.92277 33.1925 7.41877C30.1894 5.43379 27.082 3.61154 23.8837 1.95988C22.6507 1.31222 21.6644 0.849602 20.7273 0.461003C20.3316 0.27702 19.9213 0.126404 19.5005 0.0107222C19.3387 -0.00681097 19.0135 0.0107222 19.0135 0.0107222C19.0135 0.0107222 18.7175 0.028773 18.5758 0.0724046C17.4187 0.434088 16.3337 0.995647 15.3701 1.73166C13.6482 3.07451 12.3089 4.84633 11.4863 6.8698L11.7576 6.77111C11.9837 6.70447 12.2184 6.67122 12.4542 6.67242C12.6626 6.67349 12.87 6.70253 13.0707 6.75877C13.3419 6.83279 13.644 6.93148 14.0077 7.07335C14.8276 7.4126 15.6475 7.7827 16.4181 8.15279C18.2244 9.04102 20.1602 10.0588 22.4535 11.3726C25.2461 12.964 27.5147 14.3395 29.6539 15.7274C30.6526 16.375 31.6636 17.0721 32.5205 17.6704C33.2949 18.213 33.9882 18.863 34.5796 19.601C35.8266 21.2084 36.672 23.0905 37.0455 25.0908V24.7067L37.0496 24.728C37.2229 23.0813 37.2466 20.877 37.2055 18.7844Z" fill="#F6A033"/>
<path fill-rule="evenodd" clip-rule="evenodd" d="M33.42 21.4701C33.7969 21.1011 34.0343 20.6128 34.092 20.0884L34.1289 20.1316C35.1348 21.4568 35.8834 22.959 36.3359 24.5603C36.7351 26.0935 36.7782 27.6967 36.4634 29.2471L36.482 29.2408C36.4435 29.4626 36.411 29.6166 36.3306 29.7792C36.2808 29.8996 36.212 30.012 36.1263 30.1118C35.9464 30.3275 35.755 30.5334 35.553 30.7286C35.0504 31.1716 34.5213 31.5835 33.9687 31.9622C32.6001 32.9121 31.0651 33.8991 29.1355 35.0463C26.7682 36.4527 24.6475 37.6 22.6563 38.5869C21.9597 38.9385 21.1274 39.3333 20.252 39.6725C19.9181 39.7995 19.5763 39.9045 19.2287 39.9871C19.112 40.0011 18.994 40.0011 18.8773 39.9871C18.7565 40.0009 18.6344 40.0009 18.5136 39.9871C17.939 39.8332 17.3797 39.6267 16.8429 39.3703C15.7826 38.883 14.7099 38.3834 13.3167 37.6493C10.5117 36.1813 7.99032 34.6824 5.52441 33.0972C6.21281 33.3225 6.91773 33.4937 7.63277 33.6092C8.32558 33.7237 9.02658 33.7814 9.72879 33.7819H10.0555C11.5154 33.753 12.9534 33.4211 14.2784 32.8073C15.7333 32.1349 16.8553 31.586 17.9033 31.037C20.2089 29.8404 22.5823 28.508 25.0174 27.0832C26.7251 26.1332 28.9197 24.8009 31.0404 23.339C31.5397 22.9874 32.0391 22.6297 32.5754 22.2164C32.8732 21.9867 33.1553 21.7373 33.42 21.4701Z" fill="#F08136"/>
<path d="M36.4472 29.4205C36.5956 28.7105 36.67 27.987 36.6691 27.2616C36.6714 26.3483 36.5575 25.4384 36.33 24.5538C35.8779 22.9523 35.1293 21.45 34.1231 20.125C34.0654 20.6494 33.828 21.1377 33.4511 21.5067C33.1861 21.7698 32.904 22.015 32.6065 22.2407C32.0702 22.654 31.5708 23.0117 31.0715 23.3633C29.7522 24.2762 28.3898 25.1336 27.1445 25.8306C33.5374 24.856 35.7321 27.5392 36.4472 29.4205Z" fill="#ED6E28"/>
<path fill-rule="evenodd" clip-rule="evenodd" d="M9.73505 33.2083H9.52544L9.56243 33.2145C8.34779 33.2216 7.13877 33.0491 5.97454 32.7025C5.48819 32.5578 5.01451 32.3776 4.55709 32.1641L4.54468 32.2039C3.37354 31.6234 2.52308 30.9953 2.04746 30.5634C1.71596 30.3067 1.48475 29.9417 1.39411 29.532C1.29552 29.1715 1.22137 28.8047 1.17218 28.4341C1.00408 27.3272 0.909349 26.2103 0.888602 25.0909C0.802295 22.747 0.740647 20.2057 0.802295 17.1215C0.826954 15.9496 0.876272 14.7776 0.93792 13.6488C0.984103 12.8636 1.07052 12.0813 1.19684 11.3049C1.2561 10.9595 1.33431 10.6177 1.4311 10.281C1.50036 10.046 1.63003 9.8333 1.80715 9.66415C2.13228 9.32932 2.48265 9.02 2.85516 8.73891C3.80808 8.00899 4.80003 7.33154 5.82658 6.70956C8.64388 4.9146 11.4858 3.29236 14.2415 1.86133C13.059 2.9117 12.0736 4.16505 11.3317 5.56227C10.7726 6.58701 10.3892 7.69831 10.1974 8.84994C10.1306 9.1582 10.0934 9.47216 10.0864 9.78751C9.91999 11.5948 9.77203 13.2541 9.77203 14.864V25.9236C9.83368 27.3176 9.89533 28.4526 9.99397 29.5135C10.0405 30.17 10.1269 30.823 10.2529 31.4689C10.306 31.7628 10.4015 32.0475 10.5365 32.3139C10.6472 32.5232 10.7862 32.7162 10.9495 32.8876C11.0412 32.9802 11.1425 33.0629 11.2516 33.1343H11.0543C10.6174 33.1962 10.1761 33.2209 9.73505 33.2083Z" fill="#FDC52C"/>
<path fill-rule="evenodd" clip-rule="evenodd" d="M11.2395 33.1259C11.1351 33.0564 11.0381 32.9765 10.9499 32.8874C10.7865 32.7161 10.6475 32.523 10.5369 32.3137C10.4019 32.0473 10.3064 31.7626 10.2533 31.4687C10.1274 30.8228 10.0409 30.1698 9.99436 29.5133C9.89572 28.4524 9.83407 27.3174 9.77243 25.9234V23.8447C8.91552 26.2627 6.6099 31.2034 2.18359 30.6668C3.29567 31.631 4.60097 32.346 6.01192 32.764C7.09205 33.0855 8.21074 33.2572 9.33671 33.2747L9.33632 33.2776C9.6504 33.2932 10.4751 33.2867 11.2613 33.136L11.2395 33.1259Z" fill="#F9AF1A"/>
<path fill-rule="evenodd" clip-rule="evenodd" d="M15.2917 1.76646C14.4633 2.39091 13.4804 3.30702 12.7604 4.45386C12.7362 4.49233 12.7138 4.52956 12.693 4.56558C12.1951 5.29055 11.7733 6.0691 11.4365 6.88939L11.7078 6.7907C11.9339 6.72389 12.1686 6.69064 12.4044 6.69201C12.6128 6.69323 12.8201 6.72227 13.0209 6.77836C13.3332 6.86883 13.6415 6.97369 13.9456 7.09294C14.7778 7.41986 15.6039 7.80229 16.3622 8.17855C17.3534 8.65893 18.3705 9.19987 19.4607 9.77964C19.6723 9.8922 19.8867 10.0062 20.1042 10.1215C15.5238 4.79219 17.3794 1.412 18.3287 0.166016C17.2339 0.525764 16.2068 1.0657 15.2895 1.76359L15.2917 1.76646Z" fill="#F28D25"/>
</svg>
