<svg width="439" height="153" viewBox="0 0 439 153" fill="none" xmlns="http://www.w3.org/2000/svg">
<path d="M438.582 75.6524L388.972 47.0233L385.347 44.9238C379.814 41.6792 372.754 43.5878 369.701 49.1228L354.437 76.0341L369.892 102.946C373.135 108.48 380.004 110.389 385.538 107.144L388.972 105.045L438.582 76.4159C438.963 76.4159 438.963 76.0341 438.582 75.6524Z" fill="#F5853F"/>
<path d="M363.977 106.19L348.522 79.2788H317.42C311.315 79.2788 306.163 84.2412 305.972 90.3487C305.972 90.5396 305.972 90.5396 305.972 90.7305V151.997C305.972 152.378 306.354 152.76 306.735 152.569L356.726 123.749L359.779 122.032C365.313 118.596 367.221 111.534 363.977 106.19Z" fill="#FEC23B"/>
<path d="M359.588 30.6093L356.726 28.8915L306.735 0.0715728C306.354 -0.119288 305.972 0.0715727 305.972 0.644155V61.9104C305.972 62.1013 305.972 62.1013 305.972 62.2922C306.163 68.3997 311.315 73.3621 317.42 73.3621H348.522L363.977 46.2599C367.03 40.7249 365.122 33.6631 359.588 30.6093Z" fill="#F99F3F"/>
<path opacity="0.5" d="M438.582 75.6523L388.973 47.0232C395.269 55.0393 398.895 65.155 398.895 76.2249C398.895 87.2948 395.269 97.2196 388.973 105.427L438.582 76.7975C438.964 76.4157 438.964 76.034 438.582 75.6523Z" fill="#F36D32"/>
<path opacity="0.5" d="M351.384 28.7005C353.101 28.7005 355.009 28.8914 356.726 29.0822L306.735 0.262247C306.354 0.0713859 305.972 0.262247 305.972 0.834829V62.1011C305.972 62.292 305.972 62.292 305.972 62.4829C311.887 42.8242 330.014 28.7005 351.384 28.7005Z" fill="#F68832"/>
<path opacity="0.5" d="M305.972 90.3486C305.972 90.5395 305.972 90.5395 305.972 90.7304V151.997C305.972 152.378 306.354 152.76 306.735 152.569L356.726 123.749C355.009 123.94 353.101 124.131 351.384 124.131C330.014 123.94 311.887 109.626 305.972 90.3486Z" fill="#FBB02E"/>
<path d="M76.4622 138.833H92.3317V122.963H76.4622V138.833Z" fill="#1D1D1B"/>
<path d="M98.1025 138.833H113.634L113.972 122.963H98.1025V138.833Z" fill="#1D1D1B"/>
<path d="M84.0071 108.536C90.7277 108.536 96.4402 106.876 100.809 103.888C105.849 100.235 108.201 95.5866 108.201 88.9457C108.201 83.965 106.857 76.66 103.833 67.6948L87.0314 71.0152C89.0476 78.3202 89.7196 82.9689 89.7196 84.6291C89.7196 88.6137 86.0233 90.6059 78.2947 90.6059V90.2739H73.9263C70.566 90.2739 65.8616 85.6253 59.141 75.9959C58.469 75.3318 54.4366 68.6909 47.044 56.7373L69.2219 38.1427L57.4609 24.8608L23.186 54.0809C37.2992 73.0075 44.0197 83.633 44.0197 86.2893C44.0197 88.9457 40.6595 90.2739 34.2749 90.2739H29.2345C23.522 90.2739 19.8257 89.9419 18.1455 89.6098V33.162H0V106.212C12.097 107.54 19.8257 108.536 23.186 108.536H24.1941H29.2345H30.2426C41.3315 108.536 49.7322 106.212 55.7807 101.896C60.8212 105.548 66.1976 107.872 72.2461 108.536H75.2704H78.6307H84.0071Z" fill="#1D1D1B"/>
<path d="M248.141 39.2876V55.1571H264.011V39.2876H248.141Z" fill="#1D1D1B"/>
<path d="M243.813 39.2876H228.281L227.944 55.1571H243.813V39.2876Z" fill="#1D1D1B"/>
<path fill-rule="evenodd" clip-rule="evenodd" d="M238.911 82.6764C238.911 81.0083 238.236 76.3376 236.211 68.9979L252.41 64.6609C255.448 73.6686 256.798 81.0083 256.798 86.0126C256.798 92.685 254.435 97.3557 249.373 101.025C244.985 104.028 239.248 105.696 232.498 105.696H226.761H224.061H220.348V105.363C213.936 105.029 209.211 102.694 206.511 99.0238C203.136 103.361 196.724 105.696 186.937 105.696H184.237H177.825H173.775C172.425 111.034 169.387 115.705 164.662 120.042C160.95 123.044 155.888 126.381 149.475 129.717C148.115 130.389 146.776 131.062 145.447 131.729C141.503 133.71 137.652 135.643 133.613 137.39L125.513 122.044C128.382 120.709 131.166 119.375 133.951 118.04C136.735 116.706 139.519 115.371 142.388 114.037C149.813 110.367 154.875 107.031 157.238 104.028C145.763 102.026 138.676 100.692 136.313 99.691C129.226 96.6884 125.851 91.3505 125.851 83.3436C125.851 78.0057 129.901 71.6669 137.663 63.9936C145.763 56.3204 152.175 52.3169 157.575 52.3169C166.012 52.3169 171.075 56.654 173.775 65.3281C175.125 69.6652 175.8 77.0048 175.8 88.0143H178.837H184.912C191.324 88.3479 194.699 85.6789 194.699 80.6746C194.699 74.0022 194.024 66.329 192.337 56.9876C191.662 53.151 190.902 49.231 190.143 45.311C189.384 41.3909 188.624 37.4708 187.949 33.6342L206.174 30.6316L214.274 82.3427C214.949 86.3462 219.336 88.3479 227.436 88.3479V88.6815C235.198 88.6815 238.911 86.6798 238.911 82.6764ZM158.925 88.6419C159.037 88.6551 159.149 88.6683 159.263 88.6815H158.925V88.6419ZM151.163 87.5057C152.488 87.7361 155.076 88.1859 158.925 88.6419V75.6703C158.925 72.6678 158.25 71.3333 156.9 71.3333C152.175 74.0022 147.45 78.0057 143.401 83.3436C143.401 85.0117 145.763 86.3462 150.15 87.3471C150.25 87.3471 150.588 87.4057 151.163 87.5057Z" fill="#1D1D1B"/>
</svg>
