<svg width="42" height="28" viewBox="0 0 42 28" fill="none" xmlns="http://www.w3.org/2000/svg">
<path fill-rule="evenodd" clip-rule="evenodd" d="M11.8376 6.74049C12.0015 7.61485 12.1655 8.62035 12.3294 9.78616L12.9196 13.4293L13.8704 6.69678H19.1821V21.2693H15.6246V11.36L14.1983 21.2985H11.7556L10.2473 11.6077V21.313H6.67342V6.74049H11.8376ZM1.3125 6.74044H4.88642V21.2984H1.3125V6.74044ZM40.6584 12.2926C40.6042 12.0075 40.475 11.7379 40.2814 11.5057C40.0508 11.2215 39.7316 11.0037 39.3633 10.879C38.9122 10.7113 38.4258 10.6318 37.937 10.6459C37.4319 10.6435 36.9309 10.7276 36.4616 10.8936C36.0403 11.0757 35.6662 11.3338 35.3631 11.6514V6.74044H31.7236V21.313H35.2976V20.1035C35.5934 20.4388 35.9683 20.7124 36.396 20.905C36.863 21.0796 37.3648 21.1688 37.8714 21.1673C38.4551 21.1723 39.0267 21.0198 39.5109 20.7301C39.9445 20.4758 40.2637 20.0941 40.4125 19.6517C40.5792 19.0609 40.6618 18.4538 40.6584 17.8447V13.9393C40.6973 13.3909 40.6973 12.8409 40.6584 12.2926ZM37.5272 18.3402C37.5445 18.4535 37.5343 18.5688 37.4973 18.6783C37.4604 18.7879 37.3974 18.8891 37.3128 18.9753C37.2282 19.0614 37.1238 19.1304 37.0066 19.1777C36.8895 19.225 36.7623 19.2495 36.6337 19.2495C36.505 19.2495 36.3779 19.225 36.2607 19.1777C36.1436 19.1304 36.0392 19.0614 35.9546 18.9753C35.8699 18.8891 35.807 18.7879 35.7701 18.6783C35.7331 18.5688 35.7229 18.4535 35.7402 18.3402V13.3855C35.7696 13.1934 35.8763 13.0172 36.0405 12.8897C36.2048 12.7621 36.4156 12.6919 36.6337 12.6919C36.8518 12.6919 37.0625 12.7621 37.2268 12.8897C37.3911 13.0172 37.4978 13.1934 37.5272 13.3855V18.3402ZM27.5431 6.98823C28.175 7.0942 28.7507 7.38076 29.1825 7.80429C29.4997 8.17021 29.7083 8.60118 29.7891 9.05753C29.8989 9.96242 29.9427 10.8727 29.9202 11.7826V16.8247C29.9594 17.6834 29.8934 18.5434 29.7235 19.3895C29.6244 19.7834 29.3894 20.14 29.0513 20.4095C28.7313 20.7456 28.327 21.0101 27.871 21.1819C27.1723 21.2853 26.4642 21.3292 25.7561 21.313H20.9854V6.74049H23.8708C25.1016 6.69409 26.3343 6.77725 27.5431 6.98823ZM26.1372 18.3336C26.3028 18.1837 26.3955 17.982 26.3955 17.7719V10.1213C26.3955 9.91126 26.3028 9.70957 26.1372 9.55968C25.9717 9.40978 25.7465 9.32366 25.5102 9.31984H24.6085V18.5734H25.5102C25.7465 18.5696 25.9717 18.4835 26.1372 18.3336Z" fill="#F5B83F"/>
</svg>
