<svg width="41" height="40" viewBox="0 0 41 40" fill="none" xmlns="http://www.w3.org/2000/svg">
<g clip-path="url(#clip0_310_2175)">
<path d="M7.1433 19.7877C7.1433 16.9679 9.43537 14.6759 12.2551 14.6759H18.851V11.5428H12.2551C7.70395 11.5428 4.01025 15.2365 4.01025 19.7877C4.01025 24.3388 7.70395 28.0325 12.2551 28.0325H18.851V24.8995H12.2551C9.43537 24.8995 7.1433 22.6074 7.1433 19.7877ZM13.9041 21.4367H27.0959V18.1387H13.9041V21.4367ZM28.7448 11.5428H22.149V14.6759H28.7448C31.5646 14.6759 33.8567 16.9679 33.8567 19.7877C33.8567 22.6074 31.5646 24.8995 28.7448 24.8995H22.149V28.0325H28.7448C33.296 28.0325 36.9897 24.3388 36.9897 19.7877C36.9897 15.2365 33.296 11.5428 28.7448 11.5428Z" fill="#E8E8E8"/>
</g>
<defs>
<clipPath id="clip0_310_2175">
<rect width="39.5753" height="39.5753" fill="white" transform="translate(0.712402)"/>
</clipPath>
</defs>
</svg>
