<svg width="396" height="56" viewBox="0 0 396 56" fill="none" xmlns="http://www.w3.org/2000/svg">
<path d="M58.1433 27.7877C58.1433 24.9679 60.4354 22.6759 63.2551 22.6759H69.851V19.5428H63.2551C58.704 19.5428 55.0103 23.2365 55.0103 27.7877C55.0103 32.3388 58.704 36.0325 63.2551 36.0325H69.851V32.8995H63.2551C60.4354 32.8995 58.1433 30.6074 58.1433 27.7877ZM64.9041 29.4367H78.0959V26.1387H64.9041V29.4367ZM79.7448 19.5428H73.149V22.6759H79.7448C82.5646 22.6759 84.8567 24.9679 84.8567 27.7877C84.8567 30.6074 82.5646 32.8995 79.7448 32.8995H73.149V36.0325H79.7448C84.296 36.0325 87.9897 32.3388 87.9897 27.7877C87.9897 23.2365 84.296 19.5428 79.7448 19.5428Z" fill="#E8E8E8"/>
<path d="M102.284 35V22.428H99.9598V20.216H102.284V18.76C102.284 17.1547 102.723 15.9133 103.6 15.036C104.477 14.1587 105.719 13.72 107.324 13.72C107.865 13.72 108.472 13.7947 109.144 13.944L109.032 16.268C108.677 16.1933 108.229 16.156 107.688 16.156C106.904 16.156 106.297 16.38 105.868 16.828C105.439 17.2573 105.224 17.892 105.224 18.732V20.216H108.332V22.428H105.224V35H102.284ZM114.061 35H111.093V20.216H114.061V35ZM110.869 16.324C110.869 15.8387 111.018 15.4467 111.317 15.148C111.634 14.8307 112.054 14.672 112.577 14.672C113.1 14.672 113.51 14.8307 113.809 15.148C114.126 15.4467 114.285 15.8387 114.285 16.324C114.285 16.772 114.136 17.1547 113.837 17.472C113.538 17.7707 113.118 17.92 112.577 17.92C112.054 17.92 111.634 17.7707 111.317 17.472C111.018 17.1733 110.869 16.7907 110.869 16.324ZM121.034 35H118.066V14H121.034V35ZM128.006 35H125.038V20.216H128.006V35ZM124.814 16.324C124.814 15.8387 124.964 15.4467 125.262 15.148C125.58 14.8307 126 14.672 126.522 14.672C127.045 14.672 127.456 14.8307 127.754 15.148C128.072 15.4467 128.23 15.8387 128.23 16.324C128.23 16.772 128.081 17.1547 127.782 17.472C127.484 17.7707 127.064 17.92 126.522 17.92C126 17.92 125.58 17.7707 125.262 17.472C124.964 17.1733 124.814 16.7907 124.814 16.324ZM134.559 20.216L134.643 21.868C135.184 21.2147 135.819 20.7293 136.547 20.412C137.275 20.0947 138.096 19.936 139.011 19.936C140.019 19.936 140.868 20.132 141.559 20.524C142.25 20.916 142.772 21.504 143.127 22.288C143.65 21.5413 144.294 20.9627 145.059 20.552C145.843 20.1413 146.748 19.936 147.775 19.936C149.38 19.936 150.594 20.3747 151.415 21.252C152.236 22.1107 152.656 23.408 152.675 25.144V35H149.707V25.312C149.707 24.2853 149.483 23.5387 149.035 23.072C148.606 22.6053 147.868 22.372 146.823 22.372C146.058 22.372 145.404 22.5773 144.863 22.988C144.228 23.4733 143.836 24.1733 143.687 25.088V25.284V35H140.747V25.396C140.747 24.3693 140.504 23.6133 140.019 23.128C139.552 22.624 138.834 22.372 137.863 22.372C137.079 22.372 136.444 22.5307 135.959 22.848C135.418 23.184 135.007 23.6693 134.727 24.304V35H131.787V20.216H134.559ZM155.56 27.468C155.56 26.068 155.831 24.7987 156.372 23.66C156.914 22.5027 157.698 21.5973 158.724 20.944C159.77 20.272 160.983 19.936 162.364 19.936C163.727 19.936 164.922 20.2533 165.948 20.888C166.994 21.5227 167.796 22.4187 168.356 23.576C168.916 24.7147 169.196 26.0493 169.196 27.58V27.776C169.196 29.2693 168.907 30.5853 168.328 31.724C167.75 32.844 166.947 33.7213 165.92 34.356C164.894 34.972 163.718 35.28 162.392 35.28C161.048 35.28 159.863 34.972 158.836 34.356C157.828 33.7213 157.035 32.844 156.456 31.724C155.878 30.5853 155.579 29.26 155.56 27.748V27.468ZM158.528 27.776C158.528 28.8213 158.687 29.736 159.004 30.52C159.322 31.2853 159.77 31.8733 160.348 32.284C160.927 32.6947 161.608 32.9 162.392 32.9C163.176 32.9 163.858 32.704 164.436 32.312C165.015 31.9013 165.463 31.3133 165.78 30.548C166.098 29.764 166.256 28.8307 166.256 27.748V27.468C166.256 26.4227 166.098 25.5173 165.78 24.752C165.482 23.968 165.034 23.3707 164.436 22.96C163.839 22.5307 163.148 22.316 162.364 22.316C161.618 22.316 160.955 22.512 160.376 22.904C159.816 23.296 159.368 23.884 159.032 24.668C158.715 25.4333 158.547 26.348 158.528 27.412V27.776ZM174.694 34.804C174.153 34.804 173.696 34.6173 173.322 34.244C172.949 33.8707 172.762 33.404 172.762 32.844C172.762 32.3027 172.949 31.8453 173.322 31.472C173.696 31.0987 174.153 30.912 174.694 30.912C175.236 30.912 175.693 31.108 176.066 31.5C176.458 31.8733 176.654 32.3213 176.654 32.844C176.654 33.404 176.458 33.8707 176.066 34.244C175.693 34.6173 175.236 34.804 174.694 34.804ZM186.806 32.9C187.665 32.9 188.393 32.648 188.99 32.144C189.606 31.64 189.942 30.996 189.998 30.212H192.77C192.752 31.0893 192.481 31.92 191.958 32.704C191.436 33.488 190.717 34.1133 189.802 34.58C188.906 35.0467 187.917 35.28 186.834 35.28C185.472 35.28 184.286 34.9813 183.278 34.384C182.289 33.768 181.524 32.9 180.982 31.78C180.441 30.6413 180.17 29.288 180.17 27.72V27.356C180.17 25.8813 180.432 24.584 180.954 23.464C181.496 22.344 182.261 21.476 183.25 20.86C184.258 20.244 185.444 19.936 186.806 19.936C187.945 19.936 188.962 20.1693 189.858 20.636C190.754 21.084 191.454 21.7187 191.958 22.54C192.481 23.3613 192.752 24.3133 192.77 25.396H189.998C189.942 24.4813 189.616 23.744 189.018 23.184C188.421 22.6053 187.684 22.316 186.806 22.316C185.612 22.316 184.697 22.7547 184.062 23.632C183.428 24.4907 183.11 25.7507 183.11 27.412V27.86C183.11 29.5027 183.418 30.7533 184.034 31.612C184.669 32.4707 185.593 32.9 186.806 32.9ZM194.771 27.468C194.771 26.068 195.042 24.7987 195.583 23.66C196.124 22.5027 196.908 21.5973 197.935 20.944C198.98 20.272 200.194 19.936 201.575 19.936C202.938 19.936 204.132 20.2533 205.159 20.888C206.204 21.5227 207.007 22.4187 207.567 23.576C208.127 24.7147 208.407 26.0493 208.407 27.58V27.776C208.407 29.2693 208.118 30.5853 207.539 31.724C206.96 32.844 206.158 33.7213 205.131 34.356C204.104 34.972 202.928 35.28 201.603 35.28C200.259 35.28 199.074 34.972 198.047 34.356C197.039 33.7213 196.246 32.844 195.667 31.724C195.088 30.5853 194.79 29.26 194.771 27.748V27.468ZM197.739 27.776C197.739 28.8213 197.898 29.736 198.215 30.52C198.532 31.2853 198.98 31.8733 199.559 32.284C200.138 32.6947 200.819 32.9 201.603 32.9C202.387 32.9 203.068 32.704 203.647 32.312C204.226 31.9013 204.674 31.3133 204.991 30.548C205.308 29.764 205.467 28.8307 205.467 27.748V27.468C205.467 26.4227 205.308 25.5173 204.991 24.752C204.692 23.968 204.244 23.3707 203.647 22.96C203.05 22.5307 202.359 22.316 201.575 22.316C200.828 22.316 200.166 22.512 199.587 22.904C199.027 23.296 198.579 23.884 198.243 24.668C197.926 25.4333 197.758 26.348 197.739 27.412V27.776ZM214.129 20.216L214.213 21.868C214.755 21.2147 215.389 20.7293 216.117 20.412C216.845 20.0947 217.667 19.936 218.581 19.936C219.589 19.936 220.439 20.132 221.129 20.524C221.82 20.916 222.343 21.504 222.697 22.288C223.22 21.5413 223.864 20.9627 224.629 20.552C225.413 20.1413 226.319 19.936 227.345 19.936C228.951 19.936 230.164 20.3747 230.985 21.252C231.807 22.1107 232.227 23.408 232.245 25.144V35H229.277V25.312C229.277 24.2853 229.053 23.5387 228.605 23.072C228.176 22.6053 227.439 22.372 226.393 22.372C225.628 22.372 224.975 22.5773 224.433 22.988C223.799 23.4733 223.407 24.1733 223.257 25.088V25.284V35H220.317V25.396C220.317 24.3693 220.075 23.6133 219.589 23.128C219.123 22.624 218.404 22.372 217.433 22.372C216.649 22.372 216.015 22.5307 215.529 22.848C214.988 23.184 214.577 23.6693 214.297 24.304V35H211.357V20.216H214.129ZM236.614 36.708H234.038L242.046 15.092H244.622L236.614 36.708ZM255.974 35C255.806 34.6453 255.675 34.1413 255.582 33.488C255.022 34.0853 254.397 34.5333 253.706 34.832C253.034 35.1307 252.297 35.28 251.494 35.28C250.542 35.28 249.683 35.0933 248.918 34.72C248.171 34.328 247.583 33.8053 247.154 33.152C246.725 32.48 246.51 31.724 246.51 30.884C246.51 29.3347 247.089 28.14 248.246 27.3C249.422 26.4413 251.093 26.012 253.258 26.012H255.498V24.92C255.498 24.08 255.255 23.4173 254.77 22.932C254.285 22.4467 253.585 22.204 252.67 22.204C252.11 22.204 251.606 22.3067 251.158 22.512C250.729 22.6987 250.393 22.96 250.15 23.296C249.907 23.6133 249.786 23.9773 249.786 24.388H246.818C246.818 23.6227 247.079 22.904 247.602 22.232C248.125 21.5413 248.843 20.9907 249.758 20.58C250.673 20.1507 251.69 19.936 252.81 19.936C254.546 19.936 255.909 20.3747 256.898 21.252C257.906 22.1107 258.429 23.296 258.466 24.808V31.556C258.466 32.9 258.643 33.9733 258.998 34.776V35H255.974ZM252.026 32.844C252.754 32.844 253.445 32.6573 254.098 32.284C254.751 31.9107 255.218 31.4347 255.498 30.856V27.944H253.678C252.278 27.944 251.223 28.1587 250.514 28.588C249.823 29.0173 249.478 29.6707 249.478 30.548C249.478 31.2573 249.711 31.8173 250.178 32.228C250.645 32.6387 251.261 32.844 252.026 32.844ZM268.127 32.9C268.985 32.9 269.713 32.648 270.311 32.144C270.927 31.64 271.263 30.996 271.319 30.212H274.091C274.072 31.0893 273.801 31.92 273.279 32.704C272.756 33.488 272.037 34.1133 271.123 34.58C270.227 35.0467 269.237 35.28 268.155 35.28C266.792 35.28 265.607 34.9813 264.599 34.384C263.609 33.768 262.844 32.9 262.303 31.78C261.761 30.6413 261.491 29.288 261.491 27.72V27.356C261.491 25.8813 261.752 24.584 262.275 23.464C262.816 22.344 263.581 21.476 264.571 20.86C265.579 20.244 266.764 19.936 268.127 19.936C269.265 19.936 270.283 20.1693 271.179 20.636C272.075 21.084 272.775 21.7187 273.279 22.54C273.801 23.3613 274.072 24.3133 274.091 25.396H271.319C271.263 24.4813 270.936 23.744 270.339 23.184C269.741 22.6053 269.004 22.316 268.127 22.316C266.932 22.316 266.017 22.7547 265.383 23.632C264.748 24.4907 264.431 25.7507 264.431 27.412V27.86C264.431 29.5027 264.739 30.7533 265.355 31.612C265.989 32.4707 266.913 32.9 268.127 32.9ZM280.571 16.604V20.216H283.287V22.428H280.571V31.108C280.571 31.7053 280.693 32.144 280.935 32.424C281.178 32.704 281.589 32.844 282.167 32.844C282.503 32.844 282.905 32.788 283.371 32.676V34.972C282.699 35.1773 282.009 35.28 281.299 35.28C280.086 35.28 279.171 34.9347 278.555 34.244C277.939 33.5533 277.631 32.5453 277.631 31.22V22.428H275.083V20.216H277.631V16.604H280.571ZM289.198 35H286.23V20.216H289.198V35ZM286.006 16.324C286.006 15.8387 286.155 15.4467 286.454 15.148C286.771 14.8307 287.191 14.672 287.714 14.672C288.236 14.672 288.647 14.8307 288.946 15.148C289.263 15.4467 289.422 15.8387 289.422 16.324C289.422 16.772 289.272 17.1547 288.974 17.472C288.675 17.7707 288.255 17.92 287.714 17.92C287.191 17.92 286.771 17.7707 286.454 17.472C286.155 17.1733 286.006 16.7907 286.006 16.324ZM298.074 31.136L301.462 20.216H304.514L299.278 35H296.814L291.55 20.216H294.574L298.074 31.136ZM315.501 35C315.333 34.6453 315.203 34.1413 315.109 33.488C314.549 34.0853 313.924 34.5333 313.233 34.832C312.561 35.1307 311.824 35.28 311.021 35.28C310.069 35.28 309.211 35.0933 308.445 34.72C307.699 34.328 307.111 33.8053 306.681 33.152C306.252 32.48 306.037 31.724 306.037 30.884C306.037 29.3347 306.616 28.14 307.773 27.3C308.949 26.4413 310.62 26.012 312.785 26.012H315.025V24.92C315.025 24.08 314.783 23.4173 314.297 22.932C313.812 22.4467 313.112 22.204 312.197 22.204C311.637 22.204 311.133 22.3067 310.685 22.512C310.256 22.6987 309.92 22.96 309.677 23.296C309.435 23.6133 309.313 23.9773 309.313 24.388H306.345C306.345 23.6227 306.607 22.904 307.129 22.232C307.652 21.5413 308.371 20.9907 309.285 20.58C310.2 20.1507 311.217 19.936 312.337 19.936C314.073 19.936 315.436 20.3747 316.425 21.252C317.433 22.1107 317.956 23.296 317.993 24.808V31.556C317.993 32.9 318.171 33.9733 318.525 34.776V35H315.501ZM311.553 32.844C312.281 32.844 312.972 32.6573 313.625 32.284C314.279 31.9107 314.745 31.4347 315.025 30.856V27.944H313.205C311.805 27.944 310.751 28.1587 310.041 28.588C309.351 29.0173 309.005 29.6707 309.005 30.548C309.005 31.2573 309.239 31.8173 309.705 32.228C310.172 32.6387 310.788 32.844 311.553 32.844ZM325.47 16.604V20.216H328.186V22.428H325.47V31.108C325.47 31.7053 325.591 32.144 325.834 32.424C326.077 32.704 326.487 32.844 327.066 32.844C327.402 32.844 327.803 32.788 328.27 32.676V34.972C327.598 35.1773 326.907 35.28 326.198 35.28C324.985 35.28 324.07 34.9347 323.454 34.244C322.838 33.5533 322.53 32.5453 322.53 31.22V22.428H319.982V20.216H322.53V16.604H325.47ZM337.26 35.28C335.879 35.28 334.656 34.9813 333.592 34.384C332.547 33.7867 331.735 32.9373 331.156 31.836C330.577 30.7347 330.288 29.456 330.288 28V27.552C330.288 26.152 330.549 24.8827 331.072 23.744C331.613 22.5867 332.379 21.6627 333.368 20.972C334.376 20.2813 335.552 19.936 336.896 19.936C338.184 19.936 339.295 20.2253 340.228 20.804C341.161 21.364 341.871 22.1947 342.356 23.296C342.86 24.3973 343.112 25.7227 343.112 27.272V28.476H333.256V28.56C333.293 29.4187 333.489 30.1747 333.844 30.828C334.217 31.4813 334.712 31.9947 335.328 32.368C335.944 32.7227 336.635 32.9 337.4 32.9C338.24 32.9 338.968 32.7413 339.584 32.424C340.2 32.088 340.751 31.6213 341.236 31.024L342.888 32.48C342.253 33.3947 341.46 34.0947 340.508 34.58C339.575 35.0467 338.492 35.28 337.26 35.28ZM336.868 22.316C336.252 22.316 335.692 22.4747 335.188 22.792C334.684 23.0907 334.264 23.5387 333.928 24.136C333.611 24.7147 333.415 25.4147 333.34 26.236H340.172V26.012C340.135 25.228 339.976 24.5653 339.696 24.024C339.435 23.464 339.061 23.044 338.576 22.764C338.109 22.4653 337.54 22.316 336.868 22.316Z" fill="#E8E8E8"/>
</svg>
