<svg width="40" height="40" viewBox="0 0 40 40" fill="none" xmlns="http://www.w3.org/2000/svg">
<path fill-rule="evenodd" clip-rule="evenodd" d="M13.3333 3.33334H26.6666C27.9927 3.33334 29.2644 3.86012 30.2021 4.7978C31.1398 5.73548 31.6666 7.00725 31.6666 8.33334V31.6667C31.6666 32.9928 31.1398 34.2645 30.2021 35.2022C29.2644 36.1399 27.9927 36.6667 26.6666 36.6667H13.3333C12.0072 36.6667 10.7354 36.1399 9.79772 35.2022C8.86004 34.2645 8.33325 32.9928 8.33325 31.6667V8.33334C8.33325 7.00725 8.86004 5.73548 9.79772 4.7978C10.7354 3.86012 12.0072 3.33334 13.3333 3.33334ZM27.8451 32.8452C28.1577 32.5326 28.3333 32.1087 28.3333 31.6667V8.33334C28.3333 7.89131 28.1577 7.46739 27.8451 7.15482C27.5325 6.84226 27.1086 6.66667 26.6666 6.66667H13.3333C12.8912 6.66667 12.4673 6.84226 12.1547 7.15482C11.8422 7.46739 11.6666 7.89131 11.6666 8.33334V31.6667C11.6666 32.1087 11.8422 32.5326 12.1547 32.8452C12.4673 33.1577 12.8912 33.3333 13.3333 33.3333H26.6666C27.1086 33.3333 27.5325 33.1577 27.8451 32.8452ZM17.4999 28.3333H22.4999C22.9419 28.3333 23.3659 28.5089 23.6784 28.8215C23.991 29.1341 24.1666 29.558 24.1666 30C24.1666 30.442 23.991 30.866 23.6784 31.1785C23.3659 31.4911 22.9419 31.6667 22.4999 31.6667H17.4999C17.0579 31.6667 16.634 31.4911 16.3214 31.1785C16.0088 30.866 15.8333 30.442 15.8333 30C15.8333 29.558 16.0088 29.1341 16.3214 28.8215C16.634 28.5089 17.0579 28.3333 17.4999 28.3333Z" fill="#E8E8E8"/>
</svg>
