<svg width="28" height="28" viewBox="0 0 28 28" fill="none" xmlns="http://www.w3.org/2000/svg">
<path fill-rule="evenodd" clip-rule="evenodd" d="M20.4167 4.66659H7.58334C7.27392 4.66659 6.97717 4.54367 6.75838 4.32488C6.53959 4.10608 6.41667 3.80934 6.41667 3.49992C6.41667 3.1905 6.53959 2.89375 6.75838 2.67496C6.97717 2.45617 7.27392 2.33325 7.58334 2.33325H20.4167C20.7261 2.33325 21.0228 2.45617 21.2416 2.67496C21.4604 2.89375 21.5833 3.1905 21.5833 3.49992C21.5833 3.80934 21.4604 4.10608 21.2416 4.32488C21.0228 4.54367 20.7261 4.66659 20.4167 4.66659ZM21.5833 22.1666H6.41667C5.48841 22.1666 4.59818 21.7978 3.9418 21.1415C3.28542 20.4851 2.91667 19.5948 2.91667 18.6666V9.33325C2.91667 8.40499 3.28542 7.51476 3.9418 6.85838C4.59818 6.202 5.48841 5.83325 6.41667 5.83325H21.5833C22.5116 5.83325 23.4018 6.202 24.0582 6.85838C24.7146 7.51476 25.0833 8.40499 25.0833 9.33325V18.6666C25.0833 19.5948 24.7146 20.4851 24.0582 21.1415C23.4018 21.7978 22.5116 22.1666 21.5833 22.1666ZM5.59171 8.50829C5.37292 8.72709 5.25001 9.02383 5.25001 9.33325V18.6666C5.25001 18.976 5.37292 19.2728 5.59171 19.4915C5.81051 19.7103 6.10725 19.8333 6.41667 19.8333H21.5833C21.8928 19.8333 22.1895 19.7103 22.4083 19.4915C22.6271 19.2728 22.75 18.976 22.75 18.6666V9.33325C22.75 9.02383 22.6271 8.72709 22.4083 8.50829C22.1895 8.2895 21.8928 8.16659 21.5833 8.16659H6.41667C6.10725 8.16658 5.81051 8.2895 5.59171 8.50829ZM20.4167 25.6666C20.7261 25.6666 21.0228 25.5437 21.2416 25.3249C21.4604 25.1061 21.5833 24.8093 21.5833 24.4999C21.5833 24.1905 21.4604 23.8938 21.2416 23.675C21.0228 23.4562 20.7261 23.3333 20.4167 23.3333H7.58334C7.27392 23.3333 6.97717 23.4562 6.75838 23.675C6.53959 23.8938 6.41667 24.1905 6.41667 24.4999C6.41667 24.8093 6.53959 25.1061 6.75838 25.3249C6.97717 25.5437 7.27392 25.6666 7.58334 25.6666H20.4167ZM16.555 14.9216L12.8333 17.4183C12.6569 17.5375 12.4512 17.6062 12.2385 17.6169C12.0259 17.6276 11.8143 17.5799 11.6268 17.4789C11.4393 17.378 11.283 17.2276 11.1749 17.0442C11.0667 16.8607 11.0109 16.6512 11.0133 16.4383V11.4683C11.013 11.2563 11.0704 11.0483 11.1794 10.8665C11.2884 10.6847 11.4449 10.5361 11.632 10.4365C11.8191 10.337 12.0298 10.2903 12.2415 10.3014C12.4531 10.3126 12.6577 10.3812 12.8333 10.4999L16.555 12.9849C16.7138 13.0916 16.8439 13.2358 16.9339 13.4046C17.0239 13.5735 17.0709 13.7619 17.0709 13.9533C17.0709 14.1446 17.0239 14.333 16.9339 14.5019C16.8439 14.6707 16.7138 14.8149 16.555 14.9216Z" fill="white"/>
</svg>
